<?xml version="1.0" encoding="utf-8"?>
<!-- Generator: Adobe Illustrator 27.7.0, SVG Export Plug-In . SVG Version: 6.00 Build 0)  -->
<svg version="1.1" id="Layer_1" xmlns="http://www.w3.org/2000/svg" xmlns:xlink="http://www.w3.org/1999/xlink" x="0px" y="0px"
	 viewBox="0 0 96 51" style="enable-background:new 0 0 96 51;" xml:space="preserve">
<g>
	<g>
		<path d="M44.45,10.25V6.8c0-0.08-0.04-0.15-0.11-0.19l-0.4-0.23l-0.44,0.2v0.29l0.4,0.19v2.87L44.45,10.25z"/>
		<path d="M45.81,11.02c0.11,0.06,0.25,0.02,0.3-0.1l0.49-1.1c0.09-0.19,0.14-0.46,0.14-0.77c0-0.43-0.04-0.66-0.16-0.93
			c-0.12-0.26-0.32-0.47-0.59-0.62c-0.27-0.15-0.49-0.17-0.62-0.04c-0.11,0.11-0.17,0.26-0.17,0.75c0,0.5,0.04,0.73,0.17,0.97
			c0.11,0.21,0.26,0.37,0.45,0.48c0.04,0.02,0.1,0.05,0.16,0.06l-0.53,1.09L45.81,11.02z M45.82,9.08
			c-0.07-0.12-0.07-0.31-0.07-0.58c0-0.22,0-0.44,0.06-0.49c0.01-0.01,0.03-0.01,0.05-0.01c0.03,0,0.06,0.01,0.1,0.03
			c0.07,0.04,0.12,0.1,0.16,0.17c0.06,0.13,0.07,0.31,0.07,0.58c0,0.22,0,0.44-0.06,0.49c-0.03,0.03-0.08,0.02-0.14-0.01
			C45.92,9.22,45.86,9.15,45.82,9.08z"/>
		<path d="M47.37,10.87v0.26c0,0.27,0.06,0.48,0.21,0.71c0.12,0.2,0.32,0.4,0.54,0.52c0.14,0.08,0.28,0.12,0.4,0.12
			c0.06,0,0.11-0.01,0.15-0.03c0.21-0.1,0.23-0.31,0.23-0.74c0-0.29-0.01-0.48-0.1-0.71c-0.03-0.09-0.08-0.17-0.16-0.28
			c0.06-0.02,0.11-0.05,0.15-0.11c0.08-0.12,0.09-0.3,0.09-0.53c0-0.35-0.07-0.63-0.22-0.86c-0.12-0.2-0.3-0.37-0.51-0.49
			c-0.22-0.12-0.4-0.15-0.53-0.08c-0.15,0.08-0.22,0.23-0.22,0.5v0.23l0.55,0.31v-0.3c0-0.07,0.01-0.16,0.08-0.16
			c0.02,0,0.06,0.01,0.09,0.03c0.06,0.04,0.11,0.09,0.15,0.16c0.05,0.09,0.06,0.19,0.06,0.43c0,0.24-0.01,0.34-0.06,0.38
			c-0.02,0.01-0.05,0.02-0.12-0.02l-0.21-0.12v0.51l0.18,0.1c0.07,0.04,0.13,0.11,0.17,0.18c0.05,0.1,0.07,0.2,0.07,0.57
			c0,0.26-0.02,0.38-0.07,0.42c-0.03,0.02-0.07,0.02-0.13-0.02c-0.14-0.08-0.23-0.24-0.23-0.41v-0.25L47.37,10.87z"/>
		<path d="M50.35,9.97c-0.27-0.15-0.49-0.17-0.62-0.04c-0.11,0.11-0.17,0.26-0.17,0.75c0,0.5,0.04,0.72,0.17,0.97
			c0.11,0.21,0.26,0.37,0.45,0.48c0.04,0.02,0.1,0.05,0.16,0.06l-0.51,1.07l-0.01,0.03l0.35,0.2c0.11,0.06,0.25,0.02,0.3-0.1
			l0.49-1.1c0.09-0.19,0.14-0.46,0.14-0.77c0-0.43-0.04-0.66-0.16-0.93C50.82,10.33,50.62,10.12,50.35,9.97z M50.49,11.74
			c-0.03,0.02-0.08,0.02-0.14-0.01c-0.07-0.04-0.13-0.1-0.17-0.18c-0.06-0.13-0.07-0.31-0.07-0.58c0-0.22,0-0.44,0.06-0.49
			c0.01-0.01,0.03-0.01,0.05-0.01c0.03,0,0.06,0.01,0.1,0.03c0.07,0.04,0.12,0.1,0.16,0.17c0.06,0.12,0.07,0.31,0.07,0.58
			C50.55,11.47,50.55,11.69,50.49,11.74z"/>
		<path d="M48,4.17c-1.61,0-3.2,0.27-4.74,0.81l9.83,5.56c0.62-1.56,1.05-3.2,1.26-4.9C52.31,4.66,50.18,4.17,48,4.17z"/>
		<path d="M48,17.76c1.02-0.91,1.93-1.91,2.72-2.99l-7.9-4.45C43.93,13.15,45.68,15.69,48,17.76z"/>
		<path d="M61.86,2.87c-0.1-0.02-0.2-0.02-0.31-0.02c-0.9,0-1.7,0.61-1.92,1.5c-0.44,1.8-1.48,4.35-3.77,4.42
			c0.37-1.4,0.61-2.85,0.69-4.35C53.94,2.91,51.04,2.07,48,2.07c-3.04,0-5.94,0.84-8.56,2.36c0.08,1.5,0.32,2.95,0.69,4.35
			c-2.29-0.08-3.32-2.62-3.77-4.42c-0.22-0.9-1.02-1.5-1.92-1.5c-0.1,0-0.2,0.01-0.31,0.02C23.92,4.45,0.91,10.06,0.91,10.06
			s8.43,5.03,15.11,5.03c0.77,0,1.52-0.07,2.23-0.22c0,0,4.14,1.82,11.63,1.82c1.22,0,2.53-0.05,3.93-0.16
			c0.44-0.04,0.87-0.05,1.3-0.05c7.05,0,12.9,4.45,12.9,4.45s5.85-4.45,12.9-4.45c0.43,0,0.87,0.02,1.3,0.05
			c1.4,0.11,2.71,0.16,3.93,0.16c7.49,0,11.63-1.82,11.63-1.82c0.71,0.15,1.46,0.22,2.23,0.22c6.68,0,15.11-5.03,15.11-5.03
			S72.08,4.45,61.86,2.87z M60.66,4.6c0.1-0.41,0.47-0.7,0.9-0.7c0.05,0,0.1,0,0.15,0.01c2.98,0.46,7.07,1.27,11.37,2.19
			c-2.19-0.4-5.82-0.72-8.53,1.06l-0.01,0c-0.66,0.42-1.21,0.79-2.33,0.34l-2.22-0.9C60.25,6.01,60.48,5.34,60.66,4.6z M57.2,15.79
			c-0.76,0.16-1.11-0.05-1.21-0.41l-0.17-0.79c0.12-0.02,2.27-0.41,2.89,0.97C58.25,15.62,57.27,15.78,57.2,15.79z M54.88,12.73
			l0.3,1.41c-0.98,0.05-1.23-0.26-1.28-0.46c0.18-0.33,0.36-0.65,0.52-0.99C54.58,12.71,54.73,12.72,54.88,12.73z M55.43,12.77
			c0.63,0.03,1.21,0.02,1.75-0.03l0.67,1.23c-0.27,0.04-2.06,0.25-2.41-1.17L55.43,12.77z M57.75,12.68
			c0.82-0.11,1.55-0.31,2.22-0.58l1.34,1.22C61.22,13.35,58.68,14.26,57.75,12.68z M60.92,12.21c-0.15-0.14-0.29-0.25-0.42-0.35
			c0.69-0.32,1.34-0.72,1.99-1.17l2.13,1.26C64.35,12.12,62.24,13.39,60.92,12.21z M64.31,11.15l-1.34-0.79
			c0.56-0.4,1.13-0.82,1.76-1.27l2.93,1.19C67.34,10.54,65.73,11.74,64.31,11.15z M66.98,9.4c-0.43-0.18-0.77-0.3-1.03-0.38
			l-0.71-0.29c0.05-0.03,0.1-0.07,0.15-0.1c0.73-0.5,1.54-0.89,2.4-1.18l2.68,0.77C70.09,8.6,68.51,10.03,66.98,9.4z M59.75,7.07
			l3.18,1.29c-0.94,0.74-1.89,1.48-3.02,2.04c-0.35,0.13-0.83,0.18-1.16-0.13c-0.01-0.01-0.02-0.02-0.03-0.03l-1.01-0.92
			C58.52,8.88,59.21,8.11,59.75,7.07z M55.77,9.84c0.5,0,0.98-0.09,1.42-0.26l1.47,1.34c-0.87,0.28-1.86,0.43-3.01,0.4
			c-0.46-0.09-0.46-0.43-0.36-0.7l0,0c0.09-0.26,0.18-0.53,0.27-0.79C55.63,9.83,55.7,9.84,55.77,9.84z M40.23,9.84
			c0.07,0,0.14,0,0.2-0.01c0.09,0.27,0.17,0.53,0.27,0.79l0,0c0.1,0.27,0.1,0.61-0.36,0.7c-1.15,0.03-2.14-0.13-3.01-0.4l1.47-1.34
			C39.25,9.74,39.73,9.84,40.23,9.84z M40.02,15.39c-0.1,0.36-0.45,0.57-1.21,0.41c-0.07-0.02-1.06-0.17-1.51-0.23
			c0.61-1.38,2.76-0.99,2.89-0.97L40.02,15.39z M28.34,10.29l2.93-1.19c0.62,0.45,1.2,0.87,1.76,1.27l-1.34,0.79
			C30.27,11.74,28.66,10.54,28.34,10.29z M29.02,9.4c-1.53,0.63-3.11-0.8-3.49-1.17l2.68-0.77c0.87,0.29,1.68,0.67,2.4,1.18
			c0.05,0.03,0.1,0.07,0.15,0.1l-0.71,0.29C29.79,9.11,29.45,9.23,29.02,9.4z M33.51,10.69c0.65,0.45,1.3,0.84,1.99,1.17
			c-0.13,0.1-0.27,0.21-0.42,0.35c-1.32,1.18-3.43-0.09-3.71-0.26L33.51,10.69z M36.03,12.1c0.67,0.27,1.4,0.47,2.22,0.58
			c-0.93,1.59-3.48,0.67-3.57,0.64L36.03,12.1z M38.15,13.97l0.67-1.23c0.54,0.05,1.12,0.06,1.75,0.03l-0.01,0.04
			C40.21,14.22,38.43,14.01,38.15,13.97z M41.12,12.73c0.15-0.01,0.3-0.02,0.46-0.04c0.16,0.34,0.34,0.66,0.52,0.99
			c-0.06,0.2-0.3,0.51-1.28,0.46L41.12,12.73z M38.29,9.33l-1.01,0.92c-0.01,0.01-0.02,0.01-0.03,0.03
			c-0.34,0.31-0.81,0.26-1.16,0.13c-1.13-0.56-2.09-1.3-3.02-2.04l3.18-1.29C36.79,8.11,37.48,8.88,38.29,9.33z M34.3,3.91
			c0.05-0.01,0.1-0.01,0.15-0.01c0.43,0,0.79,0.29,0.9,0.7c0.18,0.74,0.41,1.4,0.68,1.99L33.8,7.5c-1.13,0.45-1.67,0.08-2.33-0.34
			l-0.01,0c-2.71-1.78-6.35-1.46-8.53-1.06C27.23,5.18,31.32,4.37,34.3,3.91z M3.84,10.44C7.59,9.55,16.16,7.6,16.16,7.6
			c3.63-0.81,7.72-1.25,11.1-0.42L8.73,12.54C6.85,11.87,5.13,11.08,3.84,10.44z M18.02,13.85c-0.61,0.13-1.29,0.19-2.01,0.19
			c-2.06,0-4.31-0.51-6.42-1.21l12.53-3.62c2.46-0.45,4.3,0.92,4.61,1.16L18.02,13.85z M24.78,11.74c2.6-0.91,4.73,0.39,4.99,0.55
			l-3.02,1.78c-0.8,0.45-2.72,1.21-4.17,0.91c-0.09-0.02-0.16-0.03-0.23-0.04c-1.62-0.32-2.74-0.68-3.28-0.87L24.78,11.74z
			 M27.98,13.95c2.48-1.33,5.1-0.35,5.45-0.21l-1.05,0.95c-0.55,0.47-1.33,0.88-2.52,0.94c-1.62,0-3.07-0.09-4.36-0.23L27.98,13.95z
			 M33.71,15.49c-0.51,0.04-1.01,0.07-1.52,0.09l0.56-0.51c1.59-1.43,4.49-0.75,4.6-0.73L37,15c-0.17,0.25-0.43,0.45-1.15,0.45
			c-0.04,0-0.53-0.01-0.75-0.01C34.64,15.43,34.17,15.45,33.71,15.49z M40.44,15.9c0.22-0.83,0.63-1.23,1.79-1.15l0.02,0.92
			c-0.01,0.43-0.14,1.04-0.78,0.83c-0.01,0-0.01,0-0.01,0c-0.35-0.11-0.71-0.22-1.08-0.32L40.44,15.9z M42.81,16.64
			c0-0.46,0.06-1.03,0.44-1.11c0.32,0.46,0.66,0.91,1.01,1.34c0.33,0.44,0.02,0.71-0.31,0.57c0,0,0,0,0,0
			c-0.36-0.16-0.73-0.32-1.13-0.47L42.81,16.64z M48,19.15c-4.31-3.52-6.99-8.6-7.47-14.12c2.38-1.26,4.89-1.9,7.47-1.9
			c2.58,0,5.09,0.64,7.47,1.9C54.99,10.55,52.31,15.63,48,19.15z M52.04,17.44c-0.32,0.13-0.63-0.13-0.3-0.57
			c0.35-0.43,0.69-0.88,1.01-1.34c0.38,0.08,0.44,0.65,0.44,1.11l-0.01,0.33C52.78,17.12,52.4,17.28,52.04,17.44z M54.52,16.49
			C54.52,16.49,54.52,16.49,54.52,16.49c-0.64,0.21-0.78-0.4-0.78-0.83l0.02-0.92c1.16-0.08,1.57,0.31,1.79,1.15l0.06,0.27
			C55.24,16.27,54.88,16.38,54.52,16.49z M62.29,15.49c-0.46-0.04-0.92-0.06-1.39-0.06c-0.21,0-0.71,0.01-0.75,0.01
			c-0.71,0-0.98-0.19-1.15-0.45l-0.36-0.66c0.1-0.02,3.01-0.7,4.6,0.73l0.56,0.51C63.3,15.55,62.79,15.53,62.29,15.49z M66.14,15.64
			c-1.19-0.06-1.97-0.47-2.52-0.94l-1.05-0.95c0.35-0.14,2.97-1.12,5.45,0.21l2.48,1.46C69.21,15.55,67.76,15.64,66.14,15.64z
			 M73.65,14.94c-0.06,0.01-0.14,0.02-0.22,0.04c-1.45,0.3-3.38-0.45-4.17-0.91l-3.02-1.78c0.26-0.17,2.39-1.46,4.99-0.55l5.72,2.33
			C76.39,14.26,75.28,14.62,73.65,14.94z M79.99,14.04c-0.72,0-1.4-0.07-2.01-0.19l-8.7-3.47c0.31-0.25,2.15-1.61,4.61-1.16
			l12.53,3.62C84.3,13.53,82.04,14.04,79.99,14.04z M68.74,7.18c3.38-0.83,7.46-0.39,11.1,0.42c0,0,8.58,1.95,12.32,2.84
			c-1.29,0.64-3.01,1.43-4.89,2.1L68.74,7.18z"/>
	</g>
	<g>
		<path d="M13.31,24.47L2.8,48.53h4.69l2.41-5.67h10.82l2.38,5.67h4.82L17.8,25.37c-0.24-0.54-0.77-0.89-1.37-0.89H13.31z
			 M19.03,38.79h-7.44l3.7-8.64L19.03,38.79z"/>
		<path d="M38.68,24.24c-7.02,0-12.51,5.42-12.51,12.35v0.07c0,7,5.35,12.28,12.45,12.28c7.02,0,12.51-5.42,12.51-12.35v-0.07
			C51.13,29.52,45.78,24.24,38.68,24.24z M30.91,36.52c0-4.6,3.31-8.07,7.7-8.07c4.43,0,7.77,3.5,7.77,8.14v0.07
			c0,4.58-3.31,8.04-7.7,8.04c-4.43,0-7.77-3.48-7.77-8.1V36.52z"/>
		<path d="M71.86,32.6v-0.07c0-4.89-3.58-8.06-9.13-8.06h-9.46v24.06h3.06c0.82,0,1.49-0.67,1.49-1.49v-6.22h4.45
			C68.09,40.82,71.86,37.59,71.86,32.6z M67.24,32.63v0.07c0,2.38-1.95,3.98-4.85,3.98h-4.58v-8.03h4.58
			C65.48,28.65,67.24,30.1,67.24,32.63z"/>
		<path d="M81.72,24.47h-3.12L68.08,48.53h4.69l2.41-5.67H86l2.38,5.67h4.82L83.08,25.37C82.84,24.83,82.31,24.47,81.72,24.47z
			 M84.31,38.79h-7.44l3.7-8.64L84.31,38.79z"/>
	</g>
	<g>
		<path d="M86.08,25.46h-0.57v-0.24h1.4v0.24h-0.57V27h-0.25V25.46z M87.3,25.22h0.27l0.64,0.98l0.63-0.98h0.27V27h-0.25v-1.37
			l-0.64,0.97h-0.03l-0.63-0.97V27H87.3V25.22z"/>
	</g>
</g>
</svg>
