<svg width="189" height="52" viewBox="0 0 189 52" fill="none" xmlns="http://www.w3.org/2000/svg">
<path d="M16.5687 15.4575V32.7158C16.5687 33.4662 16.5687 34.5542 15.5214 34.5542H12.6416V26.7504H4.2264V32.7158C4.2264 33.4662 4.2638 34.5542 3.25398 34.5542H0.299316V17.2959C0.299316 16.5455 0.299316 15.4575 1.34654 15.4575H4.2264V23.674H12.6416V17.3334C12.6416 16.5831 12.6042 15.495 13.614 15.495H16.5687V15.4575Z" fill="#4B2D89"/>
<path fill-rule="evenodd" clip-rule="evenodd" d="M33.5113 34.5542H36.9522C37.3262 34.5542 37.5132 34.3291 37.3636 33.9164L30.8932 15.4575H26.2555C25.3021 15.4575 24.9821 16.3271 24.7605 16.9295C24.7474 16.9651 24.7346 16.9998 24.7221 17.0333L18.5884 34.5542H21.4308C22.4033 34.5542 22.7025 33.8038 22.9269 33.166L24.2359 29.2266H31.7161L33.5113 34.5542ZM28.0134 18.1963L30.7062 26.2252H28.3126C26.1059 26.2252 24.8717 27.9135 24.3481 28.8515L24.1985 28.8139L28.0134 18.1963Z" fill="#4B2D89"/>
<path d="M63.8057 15.4575L57.5598 33.166C57.4102 33.5787 57.1858 34.5542 56.2134 34.5542H53.8197L50.2666 24.3868L47.0876 33.166C46.938 33.5787 46.7135 34.5542 45.7411 34.5542H43.1231L36.6527 16.0953C36.5031 15.7201 36.6901 15.4575 37.1015 15.4575H40.5424L45.2175 29.7144L48.5836 19.5845L47.3494 16.0953C47.1998 15.7201 47.3868 15.4575 47.7982 15.4575H51.2764L55.6149 29.3017L59.3924 16.8457C59.5794 16.2079 59.916 15.4575 60.851 15.4575H63.8057V15.4575Z" fill="#4B2D89"/>
<path fill-rule="evenodd" clip-rule="evenodd" d="M77.4947 34.5542H80.9356C81.3096 34.5542 81.4966 34.3291 81.347 33.9164L74.8766 15.4575H70.2389C69.2855 15.4575 68.9655 16.3271 68.7439 16.9295C68.7308 16.9651 68.718 16.9998 68.7055 17.0333L62.5718 34.5542H65.4142C66.3867 34.5542 66.6859 33.8038 66.9103 33.166L68.2193 29.2266H75.6995L77.4947 34.5542ZM71.9968 18.1963L74.6896 26.2252H72.296C70.0893 26.2252 68.8551 27.9135 68.3315 28.8515L68.1819 28.8139L71.9968 18.1963Z" fill="#4B2D89"/>
<path d="M83.5908 17.2959C83.5908 16.5455 83.5908 15.4575 84.5258 15.4575H87.5179V30.1646V32.6783C87.5179 33.4287 87.5179 34.5167 86.5829 34.5167H83.5908V17.2959Z" fill="#4B2D89"/>
<path d="M91.52 17.2959C91.52 16.5455 91.52 15.4575 92.455 15.4575H95.4471V29.8644V32.7158C95.4471 33.4662 95.4471 34.5542 94.5121 34.5542H91.52V17.2959Z" fill="#4B2D89"/>
<path fill-rule="evenodd" clip-rule="evenodd" d="M112.39 34.5542H115.831C116.205 34.5542 116.392 34.3291 116.242 33.9164L109.772 15.4575H105.134C104.181 15.4575 103.861 16.3271 103.639 16.9295C103.626 16.9651 103.613 16.9998 103.601 17.0333L97.4668 34.5542H100.309C101.282 34.5542 101.581 33.8038 101.805 33.166L103.114 29.2266H110.594L112.39 34.5542ZM106.892 18.1963L109.585 26.2252H107.191C104.984 26.2252 103.75 27.9135 103.227 28.8515L103.077 28.8139L106.892 18.1963Z" fill="#4B2D89"/>
<path d="M134.98 15.4574V32.7157C134.98 33.4661 134.98 34.5541 134.045 34.5541H131.614L122.301 21.9105V32.6782C122.301 33.4286 122.301 34.5166 121.291 34.5166H118.486V17.2583C118.486 16.5079 118.486 15.4199 119.421 15.4199H121.964L131.165 28.2886V17.2583C131.165 16.5079 131.015 15.4199 132.062 15.4199H134.98V15.4574Z" fill="#4B2D89"/>
<path fill-rule="evenodd" clip-rule="evenodd" d="M70.3508 40.7446C70.276 40.7446 70.2386 40.8197 70.2012 40.8947L66.8726 50.1617C66.8726 50.2367 66.91 50.3117 66.9848 50.3117H67.9572C68.032 50.3117 68.1068 50.2742 68.1442 50.1617L68.8548 48.0982H72.7071L73.4177 50.1617C73.4551 50.2742 73.4925 50.3117 73.6047 50.3117H74.5771C74.6893 50.3117 74.7267 50.2367 74.6893 50.1617L71.4355 40.8947C71.3981 40.7821 71.3607 40.7446 71.2484 40.7446H70.3508ZM70.7996 42.583L72.2957 46.9351H69.2662L70.7622 42.583H70.7996Z" fill="#4B2D89"/>
<path d="M77.6812 40.8947C77.6812 40.8197 77.7186 40.7446 77.8308 40.7446H78.8032C78.878 40.7446 78.9528 40.8197 78.9528 40.8947V48.2482V50.1617C78.9528 50.2367 78.878 50.3117 78.8032 50.3117H77.8308C77.756 50.3117 77.6812 50.2742 77.6812 50.1617V40.8947Z" fill="#4B2D89"/>
<path fill-rule="evenodd" clip-rule="evenodd" d="M88.5648 50.1617C88.6022 50.2742 88.6396 50.3117 88.7518 50.3117V50.2367H89.9112C89.986 50.2367 90.0608 50.1617 89.986 50.0866L87.9664 46.0722C89.1258 45.7345 89.8364 44.7591 89.8364 43.4834C89.8364 41.8327 88.6396 40.7446 86.8444 40.7446H83.4035C83.3287 40.7446 83.2539 40.8197 83.2539 40.8947V50.1617C83.2539 50.2742 83.3287 50.3117 83.4035 50.3117H84.3385C84.4507 50.3117 84.4881 50.2367 84.4881 50.1617V46.3348C84.4881 46.2973 84.5255 46.2598 84.5629 46.2598H86.6574L88.5648 50.1617ZM86.807 41.9452C87.8916 41.9452 88.5648 42.508 88.5648 43.521C88.5648 44.4964 87.929 45.0967 86.807 45.0967H84.5629C84.5255 45.0967 84.4881 45.0592 84.4881 45.0217V42.0202C84.4881 41.9827 84.5255 41.9452 84.5629 41.9452H86.807Z" fill="#4B2D89"/>
<path d="M93.5767 40.8947C93.5767 40.8197 93.6141 40.7446 93.7263 40.7446H94.6987C94.7735 40.7446 94.8483 40.8197 94.8483 40.8947V49.0736C94.8483 49.1487 94.8857 49.1487 94.9231 49.1487H99.4486C99.5234 49.1487 99.5982 49.1862 99.5982 49.2987V50.1992C99.5982 50.2742 99.5608 50.3492 99.4486 50.3492H93.7263C93.6515 50.3492 93.5767 50.3117 93.5767 50.1992V40.8947Z" fill="#4B2D89"/>
<path d="M102.366 40.8947C102.366 40.8197 102.441 40.7446 102.515 40.7446H103.488C103.563 40.7446 103.637 40.8197 103.637 40.8947V47.6855V50.1617C103.637 50.2367 103.563 50.3117 103.488 50.3117H102.515C102.441 50.3117 102.366 50.2742 102.366 50.1617V40.8947Z" fill="#4B2D89"/>
<path d="M107.939 40.8947C107.939 40.8197 107.976 40.7446 108.088 40.7446H108.986C109.098 40.7446 109.173 40.7821 109.21 40.8947L113.511 48.0606H113.549V40.8947C113.549 40.8197 113.624 40.7446 113.698 40.7446H114.596C114.671 40.7446 114.746 40.8197 114.746 40.8947V50.1617C114.746 50.2367 114.671 50.3117 114.596 50.3117H113.698C113.586 50.3117 113.511 50.2742 113.474 50.1617L109.136 43.0332H109.098V50.1617C109.098 50.2367 109.061 50.3117 108.949 50.3117H108.051C107.976 50.3117 107.901 50.2742 107.901 50.1617V40.8947H107.939Z" fill="#4B2D89"/>
<path d="M119.047 40.8947C119.047 40.8197 119.122 40.7446 119.196 40.7446H124.919C124.994 40.7446 125.068 40.8197 125.068 40.8947V41.7951C125.068 41.8702 125.031 41.9452 124.919 41.9452H120.393C120.356 41.9452 120.319 41.9827 120.319 42.0202V44.8341C120.319 44.9091 120.356 44.9091 120.393 44.9091H124.246C124.32 44.9091 124.395 44.9842 124.395 45.0592V45.9596C124.395 46.0347 124.358 46.1097 124.246 46.1097H120.393C120.356 46.1097 120.319 46.1472 120.319 46.1847V49.1112C120.319 49.1862 120.356 49.1862 120.393 49.1862H124.919C124.994 49.1862 125.068 49.2237 125.068 49.3363V50.2367C125.068 50.3117 125.031 50.3868 124.919 50.3868H119.196C119.122 50.3868 119.047 50.3492 119.047 50.2367V40.8947Z" fill="#4B2D89"/>
<path d="M128.21 49.2614C128.135 49.2239 128.135 49.1113 128.21 49.0363L128.808 48.3234C128.883 48.2484 128.921 48.2484 128.995 48.3234C129.594 48.8112 130.566 49.2989 131.651 49.2989C132.96 49.2989 133.745 48.6236 133.745 47.6856C133.745 46.8602 133.296 46.335 131.763 46.1099L131.277 46.0348C129.444 45.7722 128.472 44.9093 128.472 43.4086C128.472 41.7203 129.706 40.5947 131.576 40.5947C132.698 40.5947 133.783 40.9699 134.493 41.4952C134.568 41.5327 134.568 41.6077 134.531 41.6827L134.044 42.4706C133.97 42.5457 133.932 42.5457 133.857 42.5081C133.072 42.0204 132.361 41.7953 131.576 41.7953C130.417 41.7953 129.781 42.4331 129.781 43.3335C129.781 44.1214 130.304 44.6842 131.8 44.8718L132.249 44.9468C134.119 45.2094 135.054 46.0724 135.054 47.6106C135.054 49.2989 133.895 50.4995 131.576 50.4995C130.23 50.462 128.921 49.9367 128.21 49.2614Z" fill="#4B2D89"/>
<path fill-rule="evenodd" clip-rule="evenodd" d="M137.672 48.0605C137.037 48.0605 136.55 48.5483 136.55 49.1861C136.55 49.8239 137.037 50.3491 137.672 50.3116C138.308 50.3116 138.794 49.8239 138.794 49.1861C138.794 48.5483 138.308 48.0605 137.672 48.0605ZM137.672 48.2481C138.196 48.2481 138.607 48.6608 138.607 49.1861C138.607 49.7489 138.196 50.124 137.672 50.124C137.149 50.124 136.737 49.7113 136.737 49.1861C136.737 48.6608 137.149 48.2481 137.672 48.2481ZM137.261 49.8239C137.242 49.8239 137.233 49.8239 137.228 49.8192C137.224 49.8145 137.224 49.8052 137.224 49.7864V48.6233C137.224 48.6045 137.224 48.5952 137.228 48.5905C137.233 48.5858 137.242 48.5858 137.261 48.5858H137.747C138.009 48.5858 138.159 48.7359 138.159 48.961C138.159 49.1486 138.046 49.2611 137.897 49.2986L138.159 49.7864C138.159 49.8052 138.159 49.8145 138.154 49.8192C138.149 49.8239 138.14 49.8239 138.121 49.8239H138.009C137.99 49.8239 137.981 49.8239 137.976 49.8192C137.972 49.8145 137.972 49.8052 137.972 49.7864V49.7864L137.747 49.3362H137.523C137.523 49.3362 137.485 49.3362 137.485 49.3737V49.8239C137.485 49.8427 137.485 49.8521 137.481 49.8567C137.476 49.8614 137.467 49.8614 137.448 49.8614H137.261V49.8239ZM137.747 48.7359C137.859 48.7359 137.934 48.8109 137.934 48.9235C137.934 49.036 137.897 49.1111 137.747 49.1111H137.485C137.448 49.1111 137.448 49.0735 137.448 49.0735V48.7734C137.448 48.7359 137.485 48.7359 137.485 48.7359H137.747Z" fill="#4B2D89"/>
<path d="M170.04 19.1334C169.18 21.7971 168.881 24.3108 169.18 27.2746C169.18 27.2746 169.18 27.2746 169.18 27.3121C169.367 29.0754 169.741 30.9888 170.302 33.2023C170.788 35.0031 170.938 36.7664 170.863 38.4922C170.452 42.8817 167.796 46.1831 164.617 48.0215C164.842 46.0331 164.767 43.707 164.243 40.8182C163.57 37.0665 162.149 35.8285 161.962 35.5658L161.925 35.5283L161.962 35.4908C163.121 34.7405 164.169 33.8776 164.655 33.4649C165.029 33.1648 164.879 33.0147 164.505 33.1648C163.533 33.615 161.887 34.2152 159.793 34.4403C157.96 34.6654 155.791 34.6279 153.435 34.1777C153.435 34.1777 151.789 33.9151 152.014 32.2268C152.088 31.7391 152.313 31.2514 152.5 30.8012C152.575 30.6511 152.724 30.2009 152.649 29.8258C152.612 29.7507 152.5 29.5631 152.425 29.4506C152.313 29.263 152.275 29.0004 152.388 28.7002C152.5 28.4376 152.949 28.0625 153.547 28.0249C154.258 27.9499 155.118 28.0625 155.754 27.9499C156.726 27.7623 157.287 27.1245 157.175 26.8994C157.1 26.7494 156.24 26.9369 155.941 26.9745C155.529 27.0495 154.744 26.7118 154.332 26.5618C153.697 26.3367 153.36 26.1866 152.836 26.4117C152.5 26.5618 152.238 27.2371 152.126 26.9369C152.088 26.7869 152.163 26.6368 152.275 26.4492C152.388 26.2992 152.612 25.9615 152.649 25.8114C152.687 25.6239 152.724 25.3237 152.163 24.9485C151.789 24.6859 151.49 24.4608 151.34 24.2732C150.817 23.748 150.705 23.1853 151.752 22.3224C152.462 21.6846 154.071 20.0338 154.557 19.0209C154.632 18.8708 155.006 18.233 154.594 17.5952C154.258 17.1075 154.22 16.995 154.108 16.8449C153.884 16.3947 154.033 15.982 154.445 15.3817C154.632 15.0816 154.781 14.7439 155.193 13.4684C155.641 12.0427 156.352 10.8047 157.362 9.75418C157.437 9.67915 158.559 8.44109 159.83 8.06592C160.129 8.59116 160.803 9.26646 162.112 9.94177C163.458 10.6171 164.917 10.9922 164.917 10.9922C164.917 10.9922 166.749 11.5175 168.619 12.1928C170.115 12.718 171.648 14.6314 171.648 15.0441C171.648 15.8694 170.826 16.6573 170.04 19.1334Z" fill="white"/>
<path d="M154.332 24.1982C154.145 24.3858 153.734 24.2733 153.584 24.2733C153.435 24.2733 152.762 24.0857 152.35 24.0107C152.088 23.9731 151.976 24.0107 151.976 24.0482C151.939 24.1232 152.014 24.1607 152.088 24.1982C152.462 24.3858 152.649 24.4609 153.36 24.9111C154.183 25.3988 154.519 24.9861 154.706 24.686C154.744 24.6109 154.819 24.2358 154.744 24.1232C154.632 23.9731 154.482 24.0482 154.332 24.1982Z" fill="url(#paint0_linear_5015_3595)"/>
<path d="M164.617 0C152.948 0 143.486 9.60434 143.486 21.4222C143.486 32.002 151.041 40.7809 160.952 42.5067C160.877 43.257 160.765 44.0074 160.653 44.5701C159.98 47.9467 157.661 51.0606 156.427 51.8109C159.755 51.5108 162.411 50.5353 164.019 48.9596C163.907 48.9596 162.859 48.9596 162.785 48.9596C163.42 48.7345 164.056 48.4344 164.655 48.0592C164.879 46.0708 164.804 43.7448 164.281 40.856C163.607 37.1043 162.186 35.8662 161.999 35.6036L161.962 35.5661L161.999 35.5286C163.159 34.7782 164.206 33.9153 164.692 33.5026C165.066 33.2025 164.916 33.0524 164.542 33.2025C163.57 33.6527 161.924 34.253 159.83 34.4781C157.997 34.7032 155.828 34.6657 153.472 34.2155C153.472 34.2155 151.826 33.9528 152.051 32.2646C152.126 31.7769 152.35 31.2891 152.537 30.8389C152.612 30.6889 152.761 30.2387 152.687 29.8635C152.649 29.7885 152.537 29.6009 152.462 29.4883C152.35 29.3007 152.313 29.0381 152.425 28.738C152.537 28.4754 152.986 28.1002 153.584 28.0627C154.295 27.9876 155.155 28.1002 155.791 27.9876C156.763 27.8001 157.324 27.1623 157.212 26.9372C157.137 26.7871 156.277 26.9747 155.978 27.0122C155.566 27.0872 154.781 26.7496 154.37 26.5995C153.734 26.3744 153.397 26.2243 152.874 26.4495C152.537 26.5995 152.275 27.2748 152.163 26.9747C152.126 26.8246 152.2 26.6746 152.313 26.487C152.425 26.3369 152.649 25.9992 152.687 25.8492C152.724 25.6616 152.761 25.3615 152.2 24.9863C151.826 24.7237 151.527 24.4986 151.378 24.311C150.854 23.7857 150.742 23.223 151.789 22.3601C152.5 21.7223 154.108 20.0716 154.594 19.0586C154.669 18.9085 155.043 18.2708 154.631 17.633C154.295 17.1452 154.257 17.0327 154.145 16.8826C153.921 16.4324 154.07 16.0197 154.482 15.4195C154.669 15.1193 154.818 14.7817 155.23 13.5061C155.679 12.0805 156.389 10.8424 157.399 9.79192C157.474 9.56682 157.586 7.95359 158.521 6.4154C158.82 5.81513 159.232 5.21486 159.793 4.57707C160.167 4.16438 160.765 3.67666 161.55 3.22646C162.336 2.77625 163.308 2.32605 164.43 1.9884C165.777 1.57571 167.385 1.31309 169.143 1.35061C170.452 1.38813 171.723 1.46316 173.219 1.87585C173.219 1.87585 173.294 1.87585 173.406 1.91336C170.713 0.675305 167.759 0 164.617 0Z" fill="url(#paint1_linear_5015_3595)"/>
<path d="M161.513 14.144C161.401 14.1064 158.596 13.5062 157.698 13.5437C156.763 13.6187 155.978 14.144 155.492 14.7067C155.23 15.0068 155.118 15.307 155.08 15.5696C155.043 16.0198 155.342 16.2449 155.753 16.0948C156.015 16.0198 156.24 15.7947 156.501 15.382C156.688 15.1194 156.801 14.7817 157.062 14.6317C157.511 14.3315 158.259 14.294 159.531 14.294C160.503 14.3315 161.251 14.3691 161.438 14.3691C161.737 14.4441 161.663 14.1815 161.513 14.144Z" fill="#4B2D89"/>
<path d="M159.905 16.7326C159.381 16.4325 158.671 16.4325 158.558 16.4325C158.409 16.395 158.409 16.2824 158.596 16.1699C158.895 16.0198 159.419 16.1323 159.419 16.0573C159.419 15.9823 159.306 15.7947 158.895 15.6446C158.671 15.5696 158.259 15.4946 157.96 15.5321C157.1 15.6071 156.651 16.1699 156.539 16.2449C156.427 16.3575 156.314 16.5075 156.277 16.7326C156.24 17.0328 156.427 17.2579 156.614 17.558C156.688 17.7081 156.801 17.8206 156.801 17.9332C156.838 18.0832 156.801 18.1583 156.688 18.2708C156.539 18.3834 156.614 18.6085 156.913 18.4959C157.249 18.3834 157.436 18.3083 157.698 18.0832C158.072 17.7831 158.072 17.558 158.334 17.3329C158.596 17.0703 159.419 17.0703 159.83 17.1453C160.316 17.1828 160.428 17.0703 159.905 16.7326Z" fill="#4B2D89"/>
<path d="M185.935 20.747C185.935 19.809 185.673 17.8957 185.599 17.483C185.486 16.32 185.225 14.7442 184.327 12.4932C183.355 10.0921 182.569 8.36637 180.213 6.04032C177.445 3.30158 174.154 2.13855 173.369 1.91345C173.257 1.87593 173.182 1.87593 173.182 1.87593C171.686 1.46325 170.452 1.38821 169.105 1.3507C164.393 1.27566 160.952 3.26406 159.755 4.57715C159.194 5.17743 158.783 5.81521 158.484 6.41548C157.549 7.95368 157.437 9.56691 157.362 9.79201C157.437 9.71698 158.559 8.47892 159.83 8.10375C160.129 8.62899 160.803 9.30429 162.112 9.9796C163.458 10.6549 164.917 11.0301 164.917 11.0301C164.917 11.0301 166.749 11.5553 168.619 12.2306C170.115 12.7559 171.649 14.6692 171.649 15.0819C171.649 15.9073 170.826 16.6576 170.04 19.1713C169.18 21.835 168.881 24.3486 169.18 27.3124C169.18 27.3124 169.18 27.3124 169.18 27.3499C169.367 29.1132 169.741 31.0266 170.302 33.2401C170.788 35.0409 170.938 36.8042 170.863 38.53C170.452 42.9195 167.796 46.221 164.617 48.0593C164.019 48.397 163.383 48.6971 162.747 48.9597C162.822 48.9597 163.869 48.9597 163.982 48.9597C166.674 48.9222 170.452 48.397 173.705 44.9829C174.827 43.8199 175.688 42.5818 176.249 41.4188C176.473 40.9311 177.445 39.2053 177.969 35.7913C178.044 35.3411 178.268 33.8779 178.268 33.8779C178.268 33.8779 178.418 34.9284 178.455 35.8663C178.493 37.1419 178.53 38.7551 177.782 41.1937C178.044 41.1562 179.315 40.1807 180.811 38.1548C181.372 37.4045 181.859 36.6542 182.307 35.8288C184.477 32.4147 186.01 28.4004 185.935 20.747Z" fill="#4B2D89"/>
<path fill-rule="evenodd" clip-rule="evenodd" d="M188.328 8.66658C187.917 7.24093 187.73 5.70274 187.805 5.1775C186.937 5.37398 186.091 4.89846 185.391 4.50509C185.155 4.37268 184.936 4.24958 184.738 4.16454C183.466 3.60179 182.12 3.30165 181.035 4.80233C180.886 5.02743 180.699 5.06495 180.811 4.65226C181.073 3.82689 181.634 3.30165 181.97 3.11407C181.896 2.55131 181.26 1.08815 178.455 0.825534C177.221 0.712983 176.024 0.412848 175.575 0.0751953C175.575 0.0751953 175.164 0.825534 172.733 2.47628C171.312 3.4142 170.9 5.47764 172.658 6.75321C172.845 6.90328 172.92 7.09087 172.508 6.97831C171.76 6.75321 171.012 6.22798 170.788 5.47764C170.788 5.47764 168.282 4.53971 166.524 7.65362C166.288 8.08518 166.186 8.54773 166.086 9.00102C165.917 9.76933 165.753 10.511 164.954 11.0301C164.954 11.0301 166.711 11.6304 167.198 13.4312C167.534 15.082 169.255 16.245 171.125 15.082C171.312 14.9319 171.536 14.9694 171.274 15.3071C170.825 15.9073 169.965 16.5827 168.507 16.245C168.507 16.245 168.282 17.1079 168.544 17.9708C168.85 18.9537 169.747 19.5119 170.559 20.0174C171.235 20.4382 171.852 20.8225 172.022 21.3848C172.022 21.3848 177.632 21.5724 178.193 18.7211C177.67 18.1584 177.557 17.258 177.707 16.5076C177.782 16.0574 177.931 16.245 177.969 16.4701C178.118 17.7457 179.128 18.421 179.764 18.7211C180.587 19.0963 181.596 19.3964 183.167 19.1338C183.192 19.1292 183.216 19.1245 183.24 19.1198C184.008 18.9726 184.88 18.8054 185.823 19.0963C185.823 19.0963 185.71 18.0458 186.122 17.258C186.533 16.5076 187.655 12.831 184.514 11.5179C184.289 11.4053 184.177 11.2552 184.626 11.2552C185.374 11.2928 186.234 11.6304 186.645 12.2682C187.992 11.4803 188.777 10.1673 188.328 8.66658ZM174.49 13.3562C174.341 13.4687 174.303 13.4312 174.303 13.2811C174.422 12.6258 174.682 12.1597 174.785 11.9766C174.811 11.9292 174.827 11.9007 174.827 11.893C174.453 11.8555 173.406 12.4183 173.219 12.5683C173.069 12.6809 172.882 12.6434 173.032 12.3807C173.555 11.3303 174.266 11.0301 174.715 10.9176C174.569 10.4802 173.895 10.2553 173.548 10.1396C173.538 10.1362 173.528 10.1329 173.518 10.1297C173.443 10.0922 173.443 10.0172 173.518 9.97965C175.16 9.13792 177.051 10.3311 177.42 10.5642C177.429 10.5701 177.438 10.5753 177.445 10.5799C177.504 10.614 177.56 10.648 177.611 10.6794C177.786 10.7865 177.911 10.863 177.969 10.805C178.043 10.73 178.006 10.6174 177.856 10.4674C176.398 9.04173 174.79 8.85414 174.79 8.85414C174.303 9.4169 173.107 8.89166 173.294 8.17884C173.481 7.39098 174.715 7.61608 174.902 8.36642C176.061 8.51649 176.809 8.92918 176.809 8.92918C176.809 8.92221 176.809 8.91251 176.809 8.90031C176.803 8.71556 176.781 7.95873 177.482 7.46602C177.557 7.4285 177.632 7.39098 177.595 7.50353C177.37 8.25387 177.782 8.55401 177.782 8.55401C177.894 8.17884 178.23 7.61608 178.754 7.2034C178.904 7.09085 179.016 7.16588 178.978 7.27843C178.904 7.6536 178.866 8.32891 179.315 8.81663C179.988 8.06629 181.035 7.80367 181.222 7.76615C181.447 7.72864 181.709 7.80367 181.447 7.99125C180.885 8.4137 180.64 9.04757 180.442 9.55957C180.376 9.72962 180.315 9.88622 180.25 10.0172C179.839 10.8801 178.941 11.6304 177.37 11.9305C176.024 12.1556 175.089 12.8685 174.49 13.3562Z" fill="#F9423A"/>
<defs>
<linearGradient id="paint0_linear_5015_3595" x1="152.604" y1="24.0828" x2="152.585" y2="24.7286" gradientUnits="userSpaceOnUse">
<stop stop-color="#CE0C88"/>
<stop offset="0.0197993" stop-color="#CA0D88"/>
<stop offset="0.3503" stop-color="#941B88"/>
<stop offset="0.6356" stop-color="#6C2589"/>
<stop offset="0.8615" stop-color="#542B89"/>
<stop offset="1" stop-color="#4B2D89"/>
</linearGradient>
<linearGradient id="paint1_linear_5015_3595" x1="150.273" y1="3.98281" x2="146.8" y2="32.9099" gradientUnits="userSpaceOnUse">
<stop stop-color="#CE0C88"/>
<stop offset="0.0197993" stop-color="#CA0D88"/>
<stop offset="0.3503" stop-color="#941B88"/>
<stop offset="0.6356" stop-color="#6C2589"/>
<stop offset="0.8615" stop-color="#542B89"/>
<stop offset="1" stop-color="#4B2D89"/>
</linearGradient>
</defs>
</svg>
