<svg xmlns="http://www.w3.org/2000/svg" width="185" height="42.25" viewBox="0 0 185 42.25"><title>SkyWes-logo</title><path d="M178.43,38.84a3.29,3.29,0,1,1,3.33,3.25h0A3.21,3.21,0,0,1,178.47,39h0Zm3.28,2.71a2.71,2.71,0,1,0-2.63-2.78v0h0a2.62,2.62,0,0,0,2.5,2.7h0Zm-.68-.83h-.57V37h1.43c.89,0,1.32.33,1.32,1.07a1,1,0,0,1-.91,1h0l1.06,1.65h-.64l-1-1.62h-.64Zm.68-2.09c.47,0,.92,0,.92-.64s-.43-.55-.83-.55H181v1.19Z" fill="#00529b"/><path d="M74,42.21a3.39,3.39,0,0,0,.88-.93c.77-1,1.72-2.56,2.57-3.86a3.21,3.21,0,0,0,.6-1.28.66.66,0,0,0-.09-.33h.53a2.29,2.29,0,0,0,.64-.08c.13,1,.38,1.75.74,3.38s.84,3,1.22,3.09H79.58c-.09-.46-.31-1.83-.57-2.72H76.63a11.25,11.25,0,0,0-1.15,2.46.28.28,0,0,0,.23.26H74Zm4.26-5.51c-.22.39-.94,1.53-1.42,2.46h2c0-.44-.48-2-.58-2.46Z" fill="#00529b"/><path d="M87.64,42a.61.61,0,0,0,.36-.27,15.45,15.45,0,0,0,.64-3.15c.16-1.11.28-2,.28-2.37s-.11-.54-.28-.6h.92a7.22,7.22,0,0,0,.93,0h0a.54.54,0,0,0-.36.28,12.59,12.59,0,0,0-.6,2.69c-.17.94-.29,1.89-.37,2.85,0,.45.19.52.3.55H87.61Z" fill="#00529b"/><path d="M98.57,42a.57.57,0,0,0,.34-.27,14.75,14.75,0,0,0,.68-3.15c.16-1.11.28-2,.28-2.37s-.09-.54-.28-.6h1.65a5.89,5.89,0,0,1,.84,0c1.42,0,2.23.28,2.23,1.34,0,1.28-1.42,2-2,2.19a19.73,19.73,0,0,0,1.42,2.32,1.8,1.8,0,0,0,.7.64h-.5a4.27,4.27,0,0,0-.87.08A23.67,23.67,0,0,0,101.77,40a2.37,2.37,0,0,0-.49-.64,2.44,2.44,0,0,0-.89-.14,17.85,17.85,0,0,0-.29,2.3c0,.46.17.51.3.54h-.94a7.06,7.06,0,0,0-.92,0Zm2.71-3.15a2.55,2.55,0,0,0,1.43-.32,1.45,1.45,0,0,0,.64-1.28,1.09,1.09,0,0,0-.39-.94,2.15,2.15,0,0,0-1.25-.36,2.58,2.58,0,0,0-.68,0c-.09.3-.37,1.62-.54,2.76.27,0,.55.07.82.09Z" fill="#00529b"/><path d="M117.77,40.69a6.63,6.63,0,0,0-.49,1.42,5.56,5.56,0,0,0-.82-.09h-3.61a.55.55,0,0,0,.35-.28,13.42,13.42,0,0,0,.67-3.14c.16-1.09.28-2,.28-2.37s-.09-.54-.28-.6h1.85a.51.51,0,0,0-.34.28,10.8,10.8,0,0,0-.6,2.69c-.21,1.42-.4,2.53-.41,3h.57a5.53,5.53,0,0,0,1.8-.3,1.29,1.29,0,0,0,.8-.66Z" fill="#00529b"/><path d="M126.13,42a.55.55,0,0,0,.34-.27,13.06,13.06,0,0,0,.64-3.15,23.61,23.61,0,0,0,.3-2.37c0-.39-.11-.54-.3-.6H128a7.37,7.37,0,0,0,.94,0h0a.56.56,0,0,0-.37.28,12.57,12.57,0,0,0-.59,2.69c-.17.94-.29,1.89-.37,2.85,0,.45.17.52.3.55h-1.86Z" fill="#00529b"/><path d="M136.85,42a.79.79,0,0,0,.49-.52,13.6,13.6,0,0,0,.41-1.42,29.05,29.05,0,0,0,.71-3.58c0-.1-.08-.22-.25-.43a1,1,0,0,0-.52-.38h.86c.24,0,.49,0,.74,0a25.9,25.9,0,0,0,2.05,2.84c.64.84,1.33,1.64,2,2.38a33.22,33.22,0,0,0,.54-4.44c0-.37,0-.71-.3-.78h1.7a.48.48,0,0,0-.33.22,9.19,9.19,0,0,0-.71,2.66c-.36,1.51-.68,3.16-.74,3.55H143c-.55-.71-3.21-3.86-4.26-5.27-.12.54-.52,4-.52,4.8a.41.41,0,0,0,.24.42h-.86a6.17,6.17,0,0,0-.86,0Z" fill="#00529b"/><path d="M158.86,40.81a8.69,8.69,0,0,0-.77,1.28c-.64-.07-1.34-.1-2-.12h-2.94a.5.5,0,0,0,.35-.27,14.59,14.59,0,0,0,.64-3.14c.16-1.1.29-2,.29-2.38s-.1-.54-.29-.59h.93a37.91,37.91,0,0,0,4.26-.15,5.5,5.5,0,0,0-.49,1.43h-.15a.63.63,0,0,0-.37-.64,4.05,4.05,0,0,0-1.69-.3,11,11,0,0,0-1.15,0,23.5,23.5,0,0,0-.48,2.39h.65a4.77,4.77,0,0,0,2-.2.8.8,0,0,0,.31-.37h.16a5.55,5.55,0,0,0-.32,1.56h-.15a.17.17,0,0,0,0-.1.44.44,0,0,0-.31-.37,6.7,6.7,0,0,0-1.67-.15H155c-.08.49-.4,2.34-.41,2.71h.75a8.62,8.62,0,0,0,2.09-.2,1.83,1.83,0,0,0,1.25-.68Z" fill="#00529b"/><path d="M172.33,36.94c0-.57-.74-1.06-1.85-1.06a1.72,1.72,0,0,0-1,.23,1.18,1.18,0,0,0-.41.81c0,.86.84,1.25,1.79,1.54,1.35.41,1.64.85,1.64,1.49a1.93,1.93,0,0,1-.8,1.43,3.6,3.6,0,0,1-2.32.78,9.57,9.57,0,0,1-2-.3,4.34,4.34,0,0,0,.32-1.55h.2a1.2,1.2,0,0,0,.26.64,2.33,2.33,0,0,0,1.75.78c.91,0,1.59-.35,1.59-1.34s-1-1.15-2.12-1.56c-.64-.26-1.28-.6-1.28-1.42a1.62,1.62,0,0,1,.76-1.43,3.6,3.6,0,0,1,2.23-.64h1.75a4.17,4.17,0,0,0-.31,1.43Z" fill="#00529b"/><path d="M69.68,12.1,62.87,28.52,64,23l-.68-12.68-9.29,1h0l-7.11.71L39.07,20.6l2.72-4.5,4.12-16L35.61,1.48l-8.1,31.29h10l1.18-4.62,3.18-3.26,1,7.87H53L50.72,17.44l3.73-3.37L57,30.38c0,.4.24,1.59.24,2,0,3.34-1.92,3.33-3.89,3.33H51.12l-2.85,6.19a50.24,50.24,0,0,0,6.6.35c2.69,0,6.42,0,9.42-3.08a18.42,18.42,0,0,0,2.84-4.64c.4-.64.76-1.32,1.11-2L80,10.75Z" fill="#00529b"/><path d="M31.58,9.43V7.92C31.58,2.5,26.34.81,18.9.81A19.14,19.14,0,0,0,9.13,3.1,10.47,10.47,0,0,0,4,11.9c0,5.14,3.69,6.73,6.38,7.83l3.08,1.21c2.29.82,3.11,1.13,3.78,1.85A2.74,2.74,0,0,1,18,24.71a3.87,3.87,0,0,1-7,1.8,3.94,3.94,0,0,1-.36-1.76V23.7L0,25.12v.23c0,6.51,5.5,8.23,13.11,8.23,3.18,0,8.2-.27,12.21-3.7a10.82,10.82,0,0,0,3.91-8.19c0-5.4-3.74-7-6.2-8L19.9,12.5c-2.65-.92-3.17-1.15-3.86-1.76A2.43,2.43,0,0,1,15.16,9c0-1.23,1-2.68,3.49-2.68A2.72,2.72,0,0,1,21.7,8.62c0,.13,0,.27,0,.4a10.44,10.44,0,0,1-.21,1.76Z" fill="#00529b"/><path d="M81.44,9.8l-4.11.53.88-8.77,11-1.42L86.86,17.25l-1.71,7.53L95.39,1.27l9-1.18-1.18,16.12h0L102,24.75l8.78-23.33L121.89,0,108.15,32.71H94.75l.84-11.62c.22-2.56.32-3.25.64-5.69-.71,1.85-1,2.52-1.8,4.5L88.52,32.7H75.11l1.42-13.6Z" fill="#00529b"/><path d="M128.34,26.41c-.7,2.08-1.56,2.95-3.48,2.95a2,2,0,0,1-2.17-1.81,1.69,1.69,0,0,1,0-.55,13.46,13.46,0,0,1,.54-2.52l15.12-2a16.61,16.61,0,0,0,.68-4.59c0-5.58-4.39-7.8-10.47-7.8-7.83,0-10.88,2.85-12.63,6.26a25.09,25.09,0,0,0-2.39,9.55,6.68,6.68,0,0,0,2.61,5.69,9.21,9.21,0,0,0,4,1.55,23.49,23.49,0,0,0,3.84.31c4,0,8.11-.53,10.8-2.85a9.52,9.52,0,0,0,2.84-5.34Zm0-12.1a1.82,1.82,0,0,1,2,1.64,1.7,1.7,0,0,1,0,.39,17,17,0,0,1-.78,3.67l-5.49.74h0c.88-3,1.37-6.44,4.35-6.44Z" fill="#00529b"/><path d="M155.87,18.76l-2.64-.84c-2-.64-3.53-1.09-3.53-2.37,0-1,1-1.58,2.29-1.58s2.1.4,2.1,1.66c0,.23-.14,1.3-.14,1.51L162.63,16c0-.24,0-.47,0-.71,0-4-4.27-5.25-10.51-5.25a16.81,16.81,0,0,0-7.5,1.42,7.51,7.51,0,0,0-4.56,6.7c0,4,3,5.19,5,6l2.78,1c2,.64,3.13,1.05,3.13,2.33,0,.89-.8,1.85-2.46,1.85-.76,0-2.35-.13-2.35-2.07a4.74,4.74,0,0,1,.13-.93l-8.65,1.14V28c0,2.76,1.86,4.49,5.28,5a32.72,32.72,0,0,0,5.23.4,16.52,16.52,0,0,0,8.53-1.94,8.78,8.78,0,0,0,4.1-6.93C160.72,20.48,157.59,19.37,155.87,18.76Z" fill="#00529b"/><path d="M170.66,14.44l-5.49.88-2.33,9.16a15,15,0,0,0-.57,3.53,4.41,4.41,0,0,0,3.17,4.55,10.57,10.57,0,0,0,3.7.57,28.73,28.73,0,0,0,6-.76l1.28-5a9.27,9.27,0,0,1-1.49.13c-.64,0-2.17,0-2.17-1.55a16.09,16.09,0,0,1,.53-2.85l2.26-8.66h3.22l1-3.7h-3.24L178,4.84,167.49,6.26l-1.14,4.56h-2.26l-1,3.7Z" fill="#00529b"/></svg>