<?xml version="1.0" encoding="UTF-8"?>
<svg id="Layer_2" xmlns="http://www.w3.org/2000/svg" viewBox="0 0 352.8 92.16">
  <defs>
    <style>
      .cls-1 {
        fill: #00001c;
      }

      .cls-2 {
        fill: #0c4a7d;
      }
    </style>
  </defs>
  <g id="Layer_1-2" data-name="Layer_1">
    <g>
      <g>
        <g>
          <rect class="cls-2" x="33.45" y="89.22" width="40.06" height="1.66"/>
          <rect class="cls-2" y="77.67" width="73.5" height="1.66"/>
          <rect class="cls-2" x="16.72" y="83.44" width="56.78" height="1.66"/>
          <rect class="cls-2" x="279.74" y="89.22" width="39.61" height="1.66"/>
          <rect class="cls-2" x="279.74" y="77.67" width="73.06" height="1.66"/>
          <rect class="cls-2" x="279.74" y="83.44" width="56.34" height="1.66"/>
        </g>
        <g>
          <path class="cls-1" d="M94.34,76.58l-6.89,15.28h2.52l1.86-4.17h6.98l1.86,4.17h2.52l-6.89-15.28h-1.96ZM97.83,85.48h-5.02l2.5-5.65,2.52,5.65Z"/>
          <polygon class="cls-1" points="120.38 88.54 114.98 76.69 112.42 76.69 119.42 91.97 121.35 91.97 128.33 76.69 125.79 76.69 120.38 88.54"/>
          <rect class="cls-1" x="140.63" y="76.69" width="2.33" height="15.17"/>
          <path class="cls-1" d="M162.17,76.58l-6.89,15.28h2.52l1.86-4.17h6.98l1.86,4.17h2.52l-6.89-15.28h-1.95ZM165.66,85.48h-5.02l2.5-5.66,2.52,5.66Z"/>
          <polygon class="cls-1" points="180.18 78.9 185.51 78.9 185.51 91.86 187.84 91.86 187.84 78.9 193.18 78.9 193.18 76.69 180.18 76.69 180.18 78.9"/>
          <rect class="cls-1" x="205.74" y="76.69" width="2.33" height="15.17"/>
          <path class="cls-1" d="M229.32,76.39c-4.35,0-7.88,3.53-7.88,7.88s3.53,7.88,7.88,7.88,7.88-3.53,7.88-7.88-3.53-7.88-7.88-7.88ZM229.29,78.62c3.06,0,5.55,2.54,5.55,5.65s-2.49,5.65-5.55,5.65-5.53-2.54-5.53-5.65,2.48-5.65,5.53-5.65Z"/>
          <polygon class="cls-1" points="261.25 76.69 261.25 87.68 252.59 76.85 252.47 76.69 250.6 76.69 250.6 91.86 252.94 91.86 252.94 80.99 261.55 91.7 261.68 91.86 263.58 91.86 263.58 76.69 261.25 76.69"/>
        </g>
      </g>
      <g>
        <path class="cls-1" d="M57.05,5.19v49.11h-5.67V5.19h-20.2V0h46.07v5.19h-20.2Z"/>
        <path class="cls-1" d="M133.88,54.3h-5.67v-24.27h-32.82v24.27h-5.67V0h5.67v24.83h32.82V0h5.67v54.3Z"/>
        <path class="cls-1" d="M146.35,0h17.07c12.22,0,20.68,6.63,20.68,17.33,0,8.86-5.91,15.01-15.01,16.77l17.41,20.2h-7.11l-17.01-19.72.03-5.19c8.86,0,16.02-4.55,16.02-12.06s-6.31-12.14-15.17-12.14h-16.91V0Z"/>
        <path class="cls-1" d="M204.4,54.3h-5.67V0h5.67v54.3Z"/>
        <path class="cls-1" d="M247.53,54.7h-5.27L217.18,0h6.23l21.48,47.11L266.37,0h6.15l-24.99,54.7Z"/>
        <path class="cls-1" d="M289.6,24.67h28.83v5.27h-28.83v19.16h32.02v5.19h-37.69V0h37.69v5.19h-32.02v19.48Z"/>
      </g>
    </g>
  </g>
</svg>