<?xml version="1.0" encoding="UTF-8" standalone="no"?>
<svg
   width="162"
   height="32"
   viewBox="0 0 175.94 32"
   version="1.1"
   id="svg2"
   sodipodi:docname="united-airlines.svg"
   inkscape:version="1.4.2 (f4327f4, 2025-05-13)"
   xmlns:inkscape="http://www.inkscape.org/namespaces/inkscape"
   xmlns:sodipodi="http://sodipodi.sourceforge.net/DTD/sodipodi-0.dtd"
   xmlns="http://www.w3.org/2000/svg"
   xmlns:svg="http://www.w3.org/2000/svg">
  <defs
     id="defs2" />
  <sodipodi:namedview
     id="namedview2"
     pagecolor="#ffffff"
     bordercolor="#000000"
     borderopacity="0.25"
     inkscape:showpageshadow="2"
     inkscape:pageopacity="0.0"
     inkscape:pagecheckerboard="0"
     inkscape:deskcolor="#d1d1d1"
     inkscape:zoom="3.8759927"
     inkscape:cx="72.755554"
     inkscape:cy="-0.90299447"
     inkscape:window-width="1920"
     inkscape:window-height="1009"
     inkscape:window-x="-8"
     inkscape:window-y="-8"
     inkscape:window-maximized="1"
     inkscape:current-layer="svg2" />
  <path
     fill="#FFF"
     fill-rule="evenodd"
     d="m 147.42,4.09 c -2.42,0 -4.79,0.42 -7.05,1.24 h -0.02 v 0.86 c 0.14,-0.05 0.37,-0.13 0.71,-0.21 0.17,-0.04 0.34,-0.07 0.51,-0.1 0.06,0 0.12,-0.02 0.18,-0.03 2.22,-0.32 4.12,0.13 5.27,1.45 2.51,2.89 0.43,8.82 -4.64,13.25 -0.65,0.56 -1.31,1.08 -1.98,1.53 -0.02,0.01 -0.04,0.02 -0.05,0.04 v 1.41 c 0.2,-0.14 0.41,-0.28 0.61,-0.43 0.28,0.47 2.11,3.41 2.14,3.46 0.14,-0.09 0.53,-0.34 1.01,-0.67 0.55,-0.38 1.21,-0.86 1.81,-1.36 0.03,-0.02 0.05,-0.05 0.08,-0.07 l -2.81,-3.23 c 0.28,-0.28 1.23,-1.23 1.99,-2.13 0.18,0.14 2.51,1.96 3.45,2.8 0.74,-0.81 1.41,-1.65 2.01,-2.5 -1.29,-0.85 -3.96,-2.38 -3.96,-2.38 0.45,-0.71 0.83,-1.42 1.14,-2.12 0,0 3.12,1.22 4.39,1.85 0.33,-0.68 0.62,-1.37 0.84,-2.05 0.03,-0.1 0.07,-0.2 0.1,-0.3 -1.58,-0.64 -4.4,-1.32 -4.66,-1.38 0.17,-0.61 0.28,-1.21 0.32,-1.78 2.28,0.23 4.38,0.75 4.81,0.87 0.07,-0.66 0.06,-1.29 -0.02,-1.88 -2.55,-0.46 -4.55,-0.46 -4.81,-0.46 -0.06,-0.45 -0.16,-0.89 -0.32,-1.29 0,0 2.26,-0.2 4.63,0.08 -0.12,-0.25 -0.28,-0.53 -0.43,-0.75 -0.12,-0.18 -0.39,-0.51 -0.39,-0.51 0,0 -2,-0.15 -4.31,0.2 -0.20555,-0.2957688 -0.44744,-0.5645403 -0.72,-0.8 0.05,-0.01 1.8,-0.42 3.91,-0.41 -0.58,-0.4 -1.19,-0.67 -1.19,-0.67 -1.63,0.03 -3.35,0.49 -3.49,0.53 -0.47,-0.28 -0.83,-0.39 -0.88,-0.4 0.13,-0.04 1.4,-0.42 2.32,-0.52 -1.26,-0.17 -2.99,0.23 -3.19,0.28 -0.27,-0.05 -0.65,-0.1 -0.92,-0.13 0,0 0.93,-0.27 2.17,-0.44 1.12,-0.16 4.89,-0.62 7.3,2.63 2.28,3.08 1.45,7.86 -1.64,12.44 -0.82,1.23 -1.79,2.45 -2.92,3.61 -0.95,0.99 -1.91,1.84 -2.82,2.57 -1.40478,1.137543 -2.93066,2.116789 -4.55,2.92 -0.33,0.18 -0.66,0.34 -0.99,0.5 v 1.49 c 2.65,-1.26 4.21,-2.45 4.21,-2.45 l 2.23,3.17 c 0,0 1.73,-1.08 3.46,-2.51 1.73,-1.43 -2.67,-3.03 -2.67,-3.03 1.02,-0.91 1.95,-1.85 2.78,-2.83 0,0 2.77,2.47 3.07,2.76 0.88,-0.99 1.68,-2.04 2.4,-3.13 -1.44,-1.15 -3.32,-2.44 -3.35,-2.46 -0.03,-0.02 1.13,-1.81 1.59,-2.92 0,0 1.83,1 3.55,2.13 0.42,-0.95 0.77,-1.93 1.02,-2.94 -1.13,-0.69 -3.65,-1.82 -3.65,-1.82 0.22,-0.85 0.34,-1.68 0.38,-2.49 0,0 1.83,0.58 3.68,1.51 0.03,-0.78 -0.02,-1.55 -0.16,-2.29 -1.56,-0.75 -3.64,-1.26 -3.64,-1.26 -0.11,-0.63 -0.29,-1.23 -0.54,-1.8 0,0 1.89,0.36 3.56,1.04 -0.42,-0.93 -0.93,-1.46 -0.93,-1.46 -1.07,-0.59 -3.51,-1.04 -3.51,-1.04 -0.26,-0.34 -0.57,-0.66 -0.88,-0.94 0.77,0.11 1.96,0.38 1.96,0.38 -1.31,-0.65 -2.8,-1.02 -2.81,-1.02 0,0 -0.29,-0.19 -0.64,-0.38 0,0 3.67,0.76 5.67,2.27 0.18,0.14 0.35,0.29 0.53,0.46 0.2,0.19 0.38,0.41 0.53,0.62 3.98,5.46 0.54,15.99 -9.16,23.35 h 3.61 c -0.2,-0.22 -0.68,-0.76 -0.74,-0.82 1.14,-1.05 2.2,-2.19 3.18,-3.4 l 2.4,2.4 c 0.94649,-1.075639 1.80902,-2.222341 2.58,-3.43 0,0 -1.26,-1.21 -2.6,-2.39 1.08,-1.75 1.74,-3.49 1.74,-3.49 0.1,0.08 1.41,1.05 2.75,2.3 0.65,-1.42 1.05,-3.23 1.05,-3.23 -1.4,-1.28 -2.83,-2.19 -2.83,-2.19 0.21,-0.97 0.35,-1.96 0.38,-2.94 0,0 1.52,0.9 2.83,2.06 0.01,-0.86 -0.06,-1.71 -0.24,-2.55 -1.3,-1.13 -2.75,-1.89 -2.75,-1.89 0,0 -0.14,-0.95 -0.6,-2.09 0.09,0.04 0.78,0.4 2,1.27 -0.95,-1.24 -2.59,-2.45 -2.59,-2.45 -0.16,-0.27 -0.34,-0.53 -0.53,-0.79 1.34,0.92 2.57,2 3.65,3.22 0.4,0.51 0.77,1.15 1.05,1.89 0.08,0.2 0.15,0.4 0.21,0.6 0.89,3.02 0.34,6.41 -0.66,9.18 -1.16,3.2 -3.09,6.19 -5.35,8.73 h 4.27 c 0.41,-0.59 0.78,-1.15 1.17,-1.79 -0.29,-0.43 -1.58,-1.96 -1.58,-1.96 0.72082,-1.181593 1.34614,-2.418858 1.87,-3.7 0,0 0.87,0.96 1.55,1.96 0.67,-1.61 0.98,-3.28 0.98,-3.28 -0.46,-0.77 -1.48,-1.96 -1.48,-1.96 0.22,-1.01 0.35,-2.06 0.37,-3.11 0.51,0.61 1.21,1.59 1.21,1.59 -0.13,-1.91 -1.11,-3.64 -1.33,-4 0,-0.04 -0.01,-0.07 -0.02,-0.12 -0.13,-0.66 -0.36,-1.4 -0.48,-1.76 1.1,1.63 1.81,3.47 1.81,3.47 0.45,1.18 0.72,2.67 0.72,4.29 0,0.86 -0.17,5.34 -3.58,10.4 h 1.08 c 0.63,-1.19 1.33,-2.67 1.8,-3.92 0.01,0.04 0.25,0.66 0.42,1.31 0.36,-1.28 0.62,-2.62 0.76,-3.99 -0.05,-0.18 -0.14,-0.47 -0.2,-0.64 0,0 0.23,-1.17 0.32,-2.5 0.12,0.91 0.19,1.84 0.19,2.78 0,1.63 -0.19,3.22 -0.56,4.76 -0.19,0.76 -0.42,1.51 -0.67,2.21 h 0.92 c 0.77,-2.22 1.16,-4.56 1.16,-6.9 0,-11.58 -9.35,-21.01 -20.85,-21.01 z m -7.08,13.84 v 2.79 c 0.49,-0.32 0.99,-0.68 1.47,-1.07 z m 0.67,-11.57 c -0.23,0.15 -0.45,0.32 -0.67,0.49 V 7.5 c 0.58,-0.46 1.32,-0.96 1.96,-1.32 -0.41,0.03 -0.84,0.09 -1.29,0.18 m 1.88,11 c -0.75,-0.53 -2.55,-1.79 -2.55,-1.79 v -1.53 c 1.3,-1.85 1.48,-3.98 0.35,-5.01 -0.11,-0.1 -0.22,-0.18 -0.35,-0.25 V 8.02 h 0.02 c 0,0 1.62,-1.28 2.92,-1.84 0.31,0.02 0.61,0.07 0.89,0.13 -1.93,0.82 -3.35,1.84 -3.45,1.91 0.2,0.12 0.38,0.27 0.4,0.28 0.02,-0.02 1.9,-1.19 3.95,-1.89 0.28,0.13 0.55,0.29 0.78,0.47 -2.24,0.63 -4.4,1.76 -4.4,1.76 0.12,0.14 0.23,0.3 0.32,0.46 0.01,0 0.03,-0.01 0.04,-0.02 2.29,-0.99 4.73,-1.49 4.73,-1.49 0.19,0.26 0.35,0.55 0.47,0.88 0,0 -2.19,0.25 -5,1.16 0.12,0.39 0.16,0.68 0.16,0.69 0,0 2.65,-0.6 5.1,-0.66 0.04,0.39 0.02,0.84 -0.03,1.29 -1.45,-0.08 -4.9,0.11 -5.04,0.12 0,0 -0.01,0.5 -0.14,0.97 0,0 2.52,0.08 4.82,0.51 -0.18,0.55 -0.4,1.1 -0.67,1.63 -1.53,-0.46 -3.85,-1.02 -4.46,-1.16 -0.16,0.4 -0.36,0.79 -0.6,1.17 0,0 2.84,1.24 3.92,1.85 -0.47,0.71 -1.41,1.7 -1.41,1.7 -0.27,-0.2 -0.53,-0.39 -0.77,-0.57 z m 31.74,12.01 c -0.72,0 -1.31,0.59 -1.31,1.32 0,0.73 0.59,1.32 1.31,1.32 0.72,0 1.31,-0.59 1.31,-1.32 0,-0.73 -0.59,-1.32 -1.31,-1.32 m 0,0.19 c 0.62,0 1.12,0.5 1.12,1.12 0,0.62 -0.5,1.12 -1.12,1.12 -0.62,0 -1.12,-0.5 -1.12,-1.12 0,-0.62 0.5,-1.12 1.12,-1.12 m -0.47,0.46 h 0.62 c 0.24,0 0.4,0.14 0.4,0.36 0,0.22 -0.14,0.34 -0.35,0.37 l 0.43,0.56 H 175 l -0.4,-0.55 h -0.25 v 0.55 h -0.2 v -1.28 z m 0.19,0.19 v 0.37 h 0.42 c 0.14,0 0.2,-0.07 0.2,-0.18 0,-0.11 -0.07,-0.19 -0.2,-0.19 z"
     id="path1"
     style="fill:#ffffff"
     sodipodi:nodetypes="ccccscccccccccccccccccccccccccccccccccccccccccccccccccsccccsccccccccccccccccccccccccccccccccccccccccccccccccccccccccscccccccscccsccccccccccccccccccccccccccccccccccccccccccccsssccsssccsscccccccccccsssc" />
  <path
     fill="#1414d2"
     fill-rule="evenodd"
     d="M147.34 4.09c11.5 0 20.85 9.42 20.85 21.01 0 2.35-.4 4.69-1.16 6.9h5.12V0h-31.88v5.34h.02c2.26-.83 4.64-1.25 7.05-1.25m-7.08 9.96c1.3-1.85 1.48-3.98.35-5.01-.11-.1-.22-.18-.35-.25v5.27Zm6.68-6.75c-1.15-1.32-3.06-1.77-5.27-1.45-.06 0-.12.02-.18.03-.17.03-.34.06-.51.1-.34.08-.58.16-.71.21v.67c.22-.17.44-.34.67-.49q.66-.15 1.29-.18c-.64.37-1.38.86-1.96 1.32v.51h.02s1.62-1.28 2.92-1.84c.31.02.61.07.89.13-1.93.82-3.35 1.84-3.45 1.91.2.12.38.27.4.28.02-.02 1.9-1.19 3.95-1.89.28.13.55.29.78.47-2.24.63-4.4 1.76-4.4 1.76.12.14.23.3.32.46.01 0 .03-.01.04-.02 2.29-.99 4.73-1.49 4.73-1.49.19.26.35.55.47.88 0 0-2.19.25-5 1.16.12.39.16.68.16.69 0 0 2.65-.6 5.1-.66.04.39.02.84-.03 1.29-1.45-.08-4.9.11-5.04.12 0 0-.01.5-.14.97 0 0 2.52.08 4.82.51-.18.55-.4 1.1-.67 1.63-1.53-.46-3.85-1.02-4.46-1.16q-.24.6-.6 1.17s2.84 1.24 3.92 1.85c-.47.71-1.41 1.7-1.41 1.7-.27-.2-.53-.39-.77-.57-.75-.53-2.55-1.79-2.55-1.79v2.35l1.47 1.72c-.48.39-.98.75-1.47 1.07v1.4s.04-.02.05-.04c.67-.46 1.34-.97 1.98-1.53 5.07-4.43 7.15-10.36 4.64-13.25m6.24.25c-2.41-3.25-6.18-2.79-7.3-2.63-1.23.17-2.17.44-2.17.44.28.03.65.08.92.13.2-.05 1.93-.44 3.19-.28-.93.1-2.19.48-2.32.52.05.01.41.12.88.4.14-.04 1.85-.49 3.49-.53 0 0 .6.27 1.19.67-2.11 0-3.86.4-3.91.41.25.22.49.49.72.8 2.32-.35 4.31-.2 4.31-.2s.27.33.39.51c.15.23.31.5.43.75-2.36-.28-4.62-.08-4.63-.08.16.4.26.84.32 1.29.26 0 2.26 0 4.81.46.08.59.09 1.22.02 1.88-.43-.11-2.53-.64-4.81-.87-.05.57-.15 1.17-.32 1.78.26.06 3.08.74 4.66 1.38-.03.1-.06.2-.1.3-.23.68-.51 1.37-.84 2.05-1.27-.63-4.39-1.85-4.39-1.85-.31.7-.69 1.41-1.14 2.12 0 0 2.68 1.53 3.96 2.38-.6.85-1.27 1.69-2.01 2.5-.93-.84-3.27-2.66-3.45-2.8-.75.9-1.7 1.85-1.99 2.13l2.81 3.23s-.05.05-.08.07c-.61.51-1.26.98-1.81 1.36-.48.33-.88.58-1.01.67-.03-.05-1.87-2.99-2.14-3.46-.2.15-.4.29-.61.43v6.05c.33-.16.66-.32.99-.5a25 25 0 0 0 4.55-2.92c.91-.73 1.88-1.59 2.82-2.57a24.7 24.7 0 0 0 2.92-3.61c3.1-4.58 3.92-9.36 1.64-12.44Zm4.92 1.1c-.16-.21-.33-.43-.53-.62-.18-.17-.35-.32-.53-.46-2-1.51-5.67-2.27-5.67-2.27.35.19.64.38.64.38.02 0 1.5.38 2.81 1.02 0 0-1.2-.27-1.96-.38.32.28.62.6.88.94 0 0 2.44.45 3.51 1.04 0 0 .51.53.93 1.46-1.67-.68-3.56-1.04-3.56-1.04.25.56.43 1.17.54 1.8 0 0 2.08.51 3.64 1.26.14.74.19 1.51.16 2.29-1.85-.93-3.68-1.51-3.68-1.51-.04.8-.16 1.64-.38 2.49 0 0 2.52 1.13 3.65 1.82-.25 1-.6 1.99-1.02 2.94-1.73-1.13-3.55-2.13-3.55-2.13-.46 1.11-1.59 2.92-1.59 2.92s1.91 1.31 3.35 2.46c-.72 1.09-1.52 2.13-2.4 3.13-.3-.29-3.07-2.76-3.07-2.76a31 31 0 0 1-2.78 2.83s2.67 3.03 2.67 3.03a36 36 0 0 1-3.46 2.51l-2.23-3.17s-1.57 1.2-4.21 2.45V32h8.68c9.69-7.36 13.13-17.89 9.16-23.35M157.49 32c2.26-2.54 4.19-5.53 5.35-8.73 1.01-2.78 1.55-6.17.66-9.18q-.09-.3-.21-.6c-.28-.74-.65-1.38-1.05-1.89-1.08-1.21-2.31-2.3-3.65-3.22.2.26.38.52.53.79 0 0 1.64 1.22 2.59 2.45-1.22-.87-1.91-1.22-2-1.27.46 1.14.6 2.09.6 2.09s1.44.76 2.75 1.89c.18.84.25 1.69.24 2.55-1.31-1.16-2.83-2.06-2.83-2.06-.03.98-.16 1.97-.38 2.94 0 0 1.43.91 2.83 2.19 0 0-.4 1.81-1.05 3.23a34 34 0 0 0-2.75-2.3s-.66 1.74-1.74 3.49c1.34 1.17 2.6 2.39 2.6 2.39-.77 1.21-1.64 2.35-2.58 3.43l-2.4-2.4c-.97 1.21-2.04 2.35-3.18 3.4.05.06.54.6.74.82h4.93Zm4.26 0h1.2c3.41-5.06 3.58-9.54 3.58-10.4 0-1.62-.27-3.11-.72-4.29 0 0-.71-1.83-1.81-3.47.12.36.35 1.1.48 1.76 0 .04.01.08.02.12.22.36 1.2 2.1 1.33 4 0 0-.69-.97-1.21-1.59-.02 1.05-.15 2.1-.37 3.11 0 0 1.02 1.19 1.48 1.96 0 0-.31 1.68-.98 3.28-.68-.99-1.55-1.96-1.55-1.96-.51 1.26-1.15 2.53-1.87 3.7 0 0 1.3 1.53 1.58 1.96-.38.64-.75 1.21-1.17 1.79Zm2.28 0c.63-1.19 1.33-2.67 1.8-3.92.01.04.25.66.42 1.31.36-1.28.62-2.62.76-3.99-.05-.18-.14-.47-.2-.64 0 0 .23-1.17.32-2.5.12.91.19 1.84.19 2.78 0 1.63-.19 3.22-.56 4.76-.19.76-.42 1.51-.67 2.21h-2.07Z"
     id="path2" />
  <path
     fill="#ffffff"
     fill-rule="evenodd"
     d="m 63.8,12.29 h 6.16 v 11.74 h 4.749996 V 12.29 h 6.16 V 7.97 H 63.8 Z m 28.86,5.42 h 9.86 V 14.3 h -9.86 v -2.39 h 10.63 V 7.98 H 87.92 v 16.07 h 15.46 V 20.12 H 92.67 v -2.39 z m 22.93,2 h 4.23 c 3.09,0 4.49,-1.14 4.49,-3.71 0,-2.57 -1.39,-3.71 -4.49,-3.71 h -4.23 z M 110.84,7.97 h 9.15 c 6.36,0 9.28,2.77 9.28,8.03 0,5.26 -2.92,8.03 -9.28,8.03 h -9.15 z M 52.02,24.03 h 4.75 V 7.97 H 52.02 V 24.04 Z M 39.33,17.32 30.49,7.97 h -4.68 v 16.07 h 4.42 V 13.86 l 9.65,10.18 h 3.88 V 7.97 h -4.42 v 9.35 z M 0,16.16 V 7.97 h 4.75 v 7.96 c 0,3.06 1.45,4.35 4.24,4.35 2.79,0 4.24,-1.29 4.24,-4.35 V 7.97 h 4.75 v 8.2 c 0,5.73 -2.89,8.2 -8.98,8.2 -6.09,0 -9,-2.48 -9,-8.21"
     id="path3"
     sodipodi:nodetypes="ccccccccccccccccccccccccssscccssscccccccccccccccccccccccsssccssc"
     style="fill:#1414d2;fill-opacity:1" />
</svg>
