<?xml version="1.0" encoding="UTF-8" standalone="no"?>
<!-- Created with Inkscape (http://www.inkscape.org/) -->

<svg
   width="256.00012"
   height="255.99992"
   viewBox="0 0 67.733365 67.733314"
   version="1.1"
   id="svg1"
   xmlns:xlink="http://www.w3.org/1999/xlink"
   xmlns="http://www.w3.org/2000/svg"
   xmlns:svg="http://www.w3.org/2000/svg">
  <defs
     id="defs1">
    <pattern
       xlink:href="#pattern1"
       preserveAspectRatio="xMidYMid"
       id="pattern17"
       patternTransform="matrix(0.04095759,-0.02867882,0.02867882,0.04095759,1169.0338,-2174.0156)"
       x="0"
       y="0"
       width="1525.96777344"
       height="251.27676392" />
    <pattern
       patternUnits="userSpaceOnUse"
       width="1446.4149"
       height="139.59821"
       patternTransform="translate(1169.0338,-2174.0156)"
       preserveAspectRatio="xMidYMid"
       id="pattern1">
      <path
         style="font-weight:bold;font-size:53.3748px;line-height:1;font-family:'Atkinson Hyperlegible';-inkscape-font-specification:'Atkinson Hyperlegible Bold';text-align:center;text-anchor:middle;fill:#6aca13;stroke-width:4.20272;stroke-linecap:round;stroke-linejoin:round;paint-order:stroke markers fill"
         d="m 41.960163,109.13673 h 70.404317 v 28.04069 H 0 V 112.76791 L 67.983533,30.461442 H 3.0259653 V 2.4207496 H 109.33848 V 26.830261 Z M 127.69614,2.4207496 H 231.38611 V 30.461442 h -71.81639 v 23.400869 h 43.77574 v 28.040693 h -43.77574 v 27.233726 h 71.81639 v 28.04069 H 127.69614 Z m 168.84926,0 q 13.11254,0 24.20779,1.8156094 11.29697,1.8155717 19.36623,6.455395 8.271,4.639824 12.91083,12.910828 4.63982,8.069254 4.63982,20.576618 0,5.648466 -1.61386,11.498683 -1.41211,5.850217 -5.04329,11.095219 -3.63118,5.043326 -9.88486,9.279685 -6.25364,4.236359 -15.93679,6.85886 l 39.13595,54.265773 H 327.41034 L 290.89693,86.341076 H 276.57399 V 137.17742 H 244.70041 V 2.4207496 Z M 276.57399,59.712529 h 20.98009 q 5.64846,0 10.49004,-0.605216 4.84153,-0.605178 8.27096,-2.219036 3.63119,-1.815572 5.64851,-4.639824 2.01732,-3.025965 2.01732,-7.665789 0,-4.639823 -2.01732,-7.665827 -2.01732,-3.025965 -5.64851,-4.639823 -3.42943,-1.815572 -8.27096,-2.42075 -4.84158,-0.605215 -10.49004,-0.605215 h -20.98009 z m 94.00676,10.086576 q 0,-15.73508 5.04328,-28.645871 5.04329,-12.910828 14.32294,-21.988762 9.27965,-9.077896 21.98876,-14.1211839 Q 424.84652,0 440.37985,0 q 15.53333,0 28.44416,5.0432881 12.91083,5.0432879 22.19047,14.1211839 9.27965,9.077934 14.32294,21.988762 5.245,12.910791 5.245,28.645871 0,15.735042 -5.245,28.645871 -5.04329,12.910824 -14.32294,21.988724 -9.27964,9.07793 -22.19047,14.12122 -12.91083,5.04329 -28.44416,5.04329 -15.53333,0 -28.44412,-5.04329 -12.70911,-5.04329 -21.98876,-14.12122 -9.27965,-9.0779 -14.32294,-21.988724 -5.04328,-12.910829 -5.04328,-28.645871 z m 33.68916,0 q 0,10.691754 2.82425,18.962759 3.02596,8.069253 7.86754,13.516006 5.04329,5.44675 11.49868,8.271 6.65715,2.82422 13.91947,2.82422 7.46408,0 13.91947,-2.82422 6.65715,-2.82425 11.49872,-8.271 5.04329,-5.446753 7.86754,-13.516006 3.02597,-8.271005 3.02597,-18.962759 0,-10.691792 -3.02597,-18.761046 -2.82425,-8.271004 -7.86754,-13.717757 -4.84157,-5.446753 -11.49872,-8.270967 -6.45539,-2.824252 -13.91947,-2.824252 -7.26232,0 -13.91947,2.824252 -6.45539,2.824214 -11.49868,8.270967 -4.84158,5.446753 -7.86754,13.717757 -2.82425,8.069254 -2.82425,18.761046 z M 585.22303,2.4207496 H 703.63944 V 30.461442 H 660.26717 V 137.17742 H 628.59533 V 30.461442 h -43.3723 z M 706.06034,69.799105 q 0,-15.73508 5.04329,-28.645871 5.04329,-12.910828 14.32293,-21.988762 9.27965,-9.077896 21.98873,-14.1211839 Q 760.32612,0 775.85945,0 q 15.53332,0 28.44415,5.0432881 12.91079,5.0432879 22.19048,14.1211839 9.27965,9.077934 14.32293,21.988762 5.24501,12.910791 5.24501,28.645871 0,15.735042 -5.24501,28.645871 -5.04328,12.910824 -14.32293,21.988724 -9.27969,9.07793 -22.19048,14.12122 -12.91083,5.04329 -28.44415,5.04329 -15.53333,0 -28.44416,-5.04329 -12.70908,-5.04329 -21.98873,-14.12122 -9.27964,-9.0779 -14.32293,-21.988724 -5.04329,-12.910829 -5.04329,-28.645871 z m 33.68916,0 q 0,10.691754 2.82425,18.962759 3.02597,8.069253 7.8675,13.516006 5.04329,5.44675 11.49872,8.271 6.65715,2.82422 13.91948,2.82422 7.46407,0 13.91947,-2.82422 6.65714,-2.82425 11.49868,-8.271 5.04329,-5.446753 7.86754,-13.516006 3.02597,-8.271005 3.02597,-18.962759 0,-10.691792 -3.02597,-18.761046 -2.82425,-8.271004 -7.86754,-13.717757 -4.84154,-5.446753 -11.49868,-8.270967 -6.4554,-2.824252 -13.91947,-2.824252 -7.26233,0 -13.91948,2.824252 -6.45543,2.824214 -11.49872,8.270967 -4.84153,5.446753 -7.8675,13.717757 -2.82425,8.069254 -2.82425,18.761046 z M 926.5528,2.4207496 h 31.87359 V 53.862311 h 55.47621 V 2.4207496 h 31.8735 V 137.17742 h -31.8735 V 81.903004 H 958.42639 V 137.17742 H 926.5528 Z m 136.9759,0 h 103.69 V 30.461442 h -71.8165 v 23.400869 h 43.7758 v 28.040693 h -43.7758 v 27.233726 h 71.8165 v 28.04069 h -103.69 z m 168.8493,0 q 13.1126,0 24.2078,1.8156094 11.297,1.8155717 19.3662,6.455395 8.271,4.639824 12.9108,12.910828 4.6399,8.069254 4.6399,20.576618 0,5.648466 -1.6139,11.498683 -1.4121,5.850217 -5.0433,11.095219 -3.6311,5.043326 -9.8848,9.279685 -6.2537,4.236359 -15.9368,6.85886 l 39.1359,54.265773 h -36.9169 l -36.5134,-50.836344 h -14.3229 V 137.17742 H 1180.533 V 2.4207496 Z m -19.9714,57.2917794 h 20.9801 q 5.6484,0 10.49,-0.605216 4.8416,-0.605178 8.271,-2.219036 3.6312,-1.815572 5.6485,-4.639824 2.0173,-3.025965 2.0173,-7.665789 0,-4.639823 -2.0173,-7.665827 -2.0173,-3.025965 -5.6485,-4.639823 -3.4294,-1.815572 -8.271,-2.42075 -4.8416,-0.605215 -10.49,-0.605215 h -20.9801 z m 94.0067,10.086576 q 0,-15.73508 5.0433,-28.645871 5.0432,-12.910828 14.3229,-21.988762 9.2796,-9.077896 21.9888,-14.1211839 Q 1360.679,0 1376.2124,0 q 15.5333,0 28.4441,5.0432881 12.9109,5.0432879 22.1905,14.1211839 9.2797,9.077934 14.3229,21.988762 5.245,12.910791 5.245,28.645871 0,15.735042 -5.245,28.645871 -5.0432,12.910824 -14.3229,21.988724 -9.2796,9.07793 -22.1905,14.12122 -12.9108,5.04329 -28.4441,5.04329 -15.5334,0 -28.4441,-5.04329 -12.7092,-5.04329 -21.9888,-14.12122 -9.2797,-9.0779 -14.3229,-21.988724 -5.0433,-12.910829 -5.0433,-28.645871 z m 33.6891,0 q 0,10.691754 2.8243,18.962759 3.0259,8.069253 7.8675,13.516006 5.0433,5.44675 11.4987,8.271 6.6571,2.82422 13.9195,2.82422 7.464,0 13.9194,-2.82422 6.6572,-2.82425 11.4988,-8.271 5.0433,-5.446753 7.8675,-13.516006 3.026,-8.271005 3.026,-18.962759 0,-10.691792 -3.026,-18.761046 -2.8242,-8.271004 -7.8675,-13.717757 -4.8416,-5.446753 -11.4988,-8.270967 -6.4554,-2.824252 -13.9194,-2.824252 -7.2624,0 -13.9195,2.824252 -6.4554,2.824214 -11.4987,8.270967 -4.8416,5.446753 -7.8675,13.717757 -2.8243,8.069254 -2.8243,18.761046 z"
         id="text1"
         aria-label="ZERO TO HERO" />
    </pattern>
  </defs>
  <g
     id="layer1"
     transform="translate(-387.88279,530.8377)">
    <g
       id="g5"
       transform="matrix(0.21333333,0,0,0.38554219,399.07148,-540.72251)"
       style="fill:url(#pattern17);fill-opacity:1">
      <rect
         style="mix-blend-mode:normal;fill:url(#pattern17);fill-opacity:1;stroke:none;stroke-width:1.07273;stroke-linecap:round;stroke-linejoin:round;paint-order:stroke markers fill"
         id="rect5"
         width="317.5"
         height="175.68332"
         x="-52.44696"
         y="25.638727" />
    </g>
  </g>
</svg>
