<?xml version="1.0" encoding="UTF-8" standalone="no"?>
<!-- Created with Inkscape (http://www.inkscape.org/) -->

<svg
   width="512"
   height="512"
   viewBox="0 0 356.94565 356.94569"
   version="1.1"
   id="svg1"
   xmlns:xlink="http://www.w3.org/1999/xlink"
   xmlns="http://www.w3.org/2000/svg"
   xmlns:svg="http://www.w3.org/2000/svg">
  <defs
     id="defs1">
    <pattern
       xlink:href="#pattern75"
       preserveAspectRatio="xMidYMid"
       id="pattern76"
       patternTransform="matrix(0.26458329,0,0,0.26458329,3572.8195,-793.62193)" />
    <pattern
       xlink:href="#pattern74"
       preserveAspectRatio="xMidYMid"
       id="pattern75"
       patternTransform="matrix(0.26458329,0,0,0.26458329,2530.7611,-981.04468)"
       x="0"
       y="0"
       height="192.7169342"
       width="1314.55862097" />
    <pattern
       patternUnits="userSpaceOnUse"
       width="1279.9986"
       height="123.5365"
       patternTransform="translate(7431.8001,-2279.4928)"
       preserveAspectRatio="xMidYMid"
       id="pattern74">
      <path
         style="font-weight:bold;font-size:47.2338px;line-height:1;font-family:'Atkinson Hyperlegible';-inkscape-font-specification:'Atkinson Hyperlegible Bold';text-align:center;text-anchor:middle;fill:#6aca13;stroke-width:3.71918;stroke-linecap:round;stroke-linejoin:round;paint-order:stroke markers fill"
         d="m 37.132724,96.579779 h 62.304 V 121.39427 H 0 V 99.793133 L 60.161763,26.956724 H 2.6777953 V 2.1422362 H 96.75855 V 23.74337 Z M 113.00409,2.1422362 h 91.76013 V 26.956724 h -63.55351 v 20.708409 h 38.73902 v 24.814488 h -38.73902 v 24.100158 h 63.55351 v 24.814491 h -91.76013 z m 149.42249,0 c 7.73594,0 14.87698,0.5355591 21.42274,1.6066772 6.66482,1.0711181 12.37758,2.975244 17.13789,5.7123779 4.87975,2.7373987 8.688,6.5458767 11.42551,11.4255117 2.73751,4.760693 4.10608,10.830501 4.10608,18.209386 0,3.332296 -0.47622,6.724157 -1.42828,10.175622 -0.83301,3.451464 -2.32063,6.72427 -4.46287,9.818456 -2.14224,2.975509 -5.05814,5.71287 -8.74772,8.212158 -3.68919,2.499288 -8.39055,4.522469 -14.1033,6.069543 l 34.63332,48.022302 H 289.74047 L 257.42816,76.406929 H 244.75313 V 121.39427 H 216.54652 V 2.1422362 Z M 244.75313,52.84233 h 18.56618 c 3.3324,0 6.42708,-0.178393 9.28327,-0.535559 2.85619,-0.357165 5.29587,-1.011666 7.31906,-1.963842 2.14261,-1.071118 3.80863,-2.439799 4.9988,-4.106079 1.19017,-1.785184 1.78507,-4.046476 1.78507,-6.783874 0,-2.737398 -0.5949,-4.99869 -1.78507,-6.783874 -1.19017,-1.785184 -2.85619,-3.153751 -4.9988,-4.105701 -2.02319,-1.071118 -4.46287,-1.785184 -7.31906,-2.142236 -2.85619,-0.357165 -5.95087,-0.535559 -9.28327,-0.535559 h -18.56618 z m 83.1908,8.925733 c 0,-9.283011 1.48763,-17.732901 4.46287,-25.34967 2.97562,-7.616995 7.20038,-14.103307 12.67502,-19.458897 5.47465,-5.355855 11.96107,-9.5213858 19.4589,-12.4966299 C 372.1576,1.487622 380.54815,0 389.71237,0 c 9.16423,0 17.55478,1.487622 25.17166,4.4628661 7.61688,2.9752441 14.16264,7.1407749 19.63729,12.4966299 5.47465,5.35559 9.6994,11.841902 12.67502,19.458897 3.0943,7.616769 4.64164,16.066659 4.64164,25.34967 0,9.283275 -1.54734,17.733278 -4.64164,25.350047 -2.97562,7.616995 -7.20037,14.10331 -12.67502,19.4589 -5.47465,5.35585 -12.02041,9.52138 -19.63729,12.49663 -7.61688,2.97524 -16.00743,4.46286 -25.17166,4.46286 -9.16422,0 -17.55477,-1.48762 -25.17165,-4.46286 -7.49783,-2.97525 -13.98425,-7.14078 -19.4589,-12.49663 -5.47464,-5.35559 -9.6994,-11.841905 -12.67502,-19.4589 -2.97524,-7.616769 -4.46287,-16.066772 -4.46287,-25.350047 z m 29.81292,0 c 0,6.307766 0.83301,11.901467 2.4994,16.781102 1.78507,4.760693 4.10608,8.747716 6.96227,11.961071 2.97562,3.213354 6.36737,5.653152 10.176,7.319433 3.9273,1.66628 8.03338,2.499401 12.31785,2.499401 4.40353,0 8.50923,-0.833121 12.31786,-2.499401 3.92731,-1.666281 7.31944,-4.106079 10.176,-7.319433 2.97525,-3.213355 5.29588,-7.200378 6.96227,-11.961071 1.78507,-4.879635 2.6778,-10.473336 2.6778,-16.781102 0,-6.307541 -0.89273,-11.841638 -2.6778,-16.602331 -1.66639,-4.879635 -3.98702,-8.92611 -6.96227,-12.139465 -2.85656,-3.213354 -6.24869,-5.653152 -10.176,-7.319433 -3.80863,-1.66628 -7.91433,-2.499401 -12.31786,-2.499401 -4.28447,0 -8.39055,0.833121 -12.31785,2.499401 -3.80863,1.666281 -7.20038,4.106079 -10.176,7.319433 -2.85619,3.213355 -5.1772,7.25983 -6.96227,12.139465 -1.66639,4.760693 -2.4994,10.29479 -2.4994,16.602331 z M 517.89089,2.1422362 H 622.68283 V 26.956724 H 584.30059 V 121.39427 H 556.27275 V 26.956724 H 517.89089 Z M 624.82507,61.768063 c 0,-9.283011 1.48762,-17.732901 4.46324,-25.34967 2.97524,-7.616995 7.20038,-14.103307 12.67502,-19.458897 5.47465,-5.355855 11.9607,-9.5213858 19.4589,-12.4966299 C 669.03911,1.487622 677.42929,0 686.59351,0 c 9.16422,0 17.55477,1.487622 25.17165,4.4628661 7.61688,2.9752441 14.16265,7.1407749 19.63729,12.4966299 5.47465,5.35559 9.69978,11.841902 12.67502,19.458897 3.0943,7.616769 4.64164,16.066659 4.64164,25.34967 0,9.283275 -1.54734,17.733278 -4.64164,25.350047 -2.97524,7.616995 -7.20037,14.10331 -12.67502,19.4589 -5.47464,5.35585 -12.02041,9.52138 -19.63729,12.49663 -7.61688,2.97524 -16.00743,4.46286 -25.17165,4.46286 -9.16422,0 -17.5544,-1.48762 -25.17128,-4.46286 -7.4982,-2.97525 -13.98425,-7.14078 -19.4589,-12.49663 -5.47464,-5.35559 -9.69978,-11.841905 -12.67502,-19.4589 -2.97562,-7.616769 -4.46324,-16.066772 -4.46324,-25.350047 z m 29.81329,0 c 0,6.307766 0.83301,11.901467 2.4994,16.781102 1.78507,4.760693 4.10608,8.747716 6.96227,11.961071 2.97524,3.213354 6.36699,5.653152 10.17562,7.319433 3.92731,1.66628 8.03338,2.499401 12.31786,2.499401 4.40352,0 8.5096,-0.833121 12.31823,-2.499401 3.92731,-1.666281 7.31944,-4.106079 10.17562,-7.319433 2.97525,-3.213355 5.29588,-7.200378 6.96227,-11.961071 1.78507,-4.879635 2.6778,-10.473336 2.6778,-16.781102 0,-6.307541 -0.89273,-11.841638 -2.6778,-16.602331 -1.66639,-4.879635 -3.98702,-8.92611 -6.96227,-12.139465 -2.85618,-3.213354 -6.24831,-5.653152 -10.17562,-7.319433 -3.80863,-1.66628 -7.91471,-2.499401 -12.31823,-2.499401 -4.28448,0 -8.39055,0.833121 -12.31786,2.499401 -3.80863,1.666281 -7.20038,4.106079 -10.17562,7.319433 -2.85619,3.213355 -5.1772,7.25983 -6.96227,12.139465 -1.66639,4.760693 -2.4994,10.29479 -2.4994,16.602331 z M 819.94922,2.1422362 h 28.20624 V 47.665133 h 49.09341 V 2.1422362 h 28.20624 V 121.39427 H 897.24887 V 72.479621 h -49.09341 v 48.914649 h -28.20624 z m 121.21588,0 h 91.7601 V 26.956724 h -63.55349 v 20.708409 h 38.73899 v 24.814488 h -38.73899 v 24.100158 h 63.55349 v 24.814491 h -91.7601 z m 149.4225,0 c 7.7359,0 14.877,0.5355591 21.4227,1.6066772 6.6648,1.0711181 12.3776,2.975244 17.1383,5.7123779 4.8794,2.7373987 8.6876,6.5458767 11.4251,11.4255117 2.7375,4.760693 4.1061,10.830501 4.1061,18.209386 0,3.332296 -0.4762,6.724157 -1.4283,10.175622 -0.833,3.451464 -2.3206,6.72427 -4.4628,9.818456 -2.1423,2.975509 -5.0582,5.71287 -8.7478,8.212158 -3.6892,2.499288 -8.3905,4.522469 -14.1033,6.069543 l 34.6334,48.022302 h -32.6695 l -32.3123,-44.987341 h -12.6751 v 44.987341 h -28.2062 V 2.1422362 Z M 1072.9141,52.84233 h 18.5662 c 3.3324,0 6.4271,-0.178393 9.2833,-0.535559 2.8562,-0.357165 5.2962,-1.011666 7.3194,-1.963842 2.1423,-1.071118 3.8083,-2.439799 4.9984,-4.106079 1.1902,-1.785184 1.7851,-4.046476 1.7851,-6.783874 0,-2.737398 -0.5949,-4.99869 -1.7851,-6.783874 -1.1901,-1.785184 -2.8561,-3.153751 -4.9984,-4.105701 -2.0232,-1.071118 -4.4632,-1.785184 -7.3194,-2.142236 -2.8562,-0.357165 -5.9509,-0.535559 -9.2833,-0.535559 h -18.5662 z m 83.1908,8.925733 c 0,-9.283011 1.4877,-17.732901 4.4629,-25.34967 2.9756,-7.616995 7.2004,-14.103307 12.675,-19.458897 5.4747,-5.355855 11.9611,-9.5213858 19.4589,-12.4966299 C 1200.3186,1.487622 1208.7092,0 1217.8734,0 c 9.1642,0 17.5544,1.487622 25.1713,4.4628661 7.6168,2.9752441 14.163,7.1407749 19.6376,12.4966299 5.4747,5.35559 9.6994,11.841902 12.675,19.458897 3.0943,7.616769 4.6413,16.066659 4.6413,25.34967 0,9.283275 -1.547,17.733278 -4.6413,25.350047 -2.9756,7.616995 -7.2003,14.10331 -12.675,19.4589 -5.4746,5.35585 -12.0208,9.52138 -19.6376,12.49663 -7.6169,2.97524 -16.0071,4.46286 -25.1713,4.46286 -9.1642,0 -17.5548,-1.48762 -25.1717,-4.46286 -7.4978,-2.97525 -13.9842,-7.14078 -19.4589,-12.49663 -5.4746,-5.35559 -9.6994,-11.841905 -12.675,-19.4589 -2.9752,-7.616769 -4.4629,-16.066772 -4.4629,-25.350047 z m 29.8129,0 c 0,6.307766 0.8331,11.901467 2.4995,16.781102 1.785,4.760693 4.106,8.747716 6.9622,11.961071 2.9756,3.213354 6.3674,5.653152 10.1756,7.319433 3.9277,1.66628 8.0338,2.499401 12.3183,2.499401 4.4035,0 8.5092,-0.833121 12.3178,-2.499401 3.9273,-1.666281 7.3195,-4.106079 10.1757,-7.319433 2.9756,-3.213355 5.2962,-7.200378 6.9626,-11.961071 1.7851,-4.879635 2.6778,-10.473336 2.6778,-16.781102 0,-6.307541 -0.8927,-11.841638 -2.6778,-16.602331 -1.6664,-4.879635 -3.987,-8.92611 -6.9626,-12.139465 -2.8562,-3.213354 -6.2484,-5.653152 -10.1757,-7.319433 -3.8086,-1.66628 -7.9143,-2.499401 -12.3178,-2.499401 -4.2845,0 -8.3906,0.833121 -12.3183,2.499401 -3.8082,1.666281 -7.2,4.106079 -10.1756,7.319433 -2.8562,3.213355 -5.1772,7.25983 -6.9622,12.139465 -1.6664,4.760693 -2.4995,10.29479 -2.4995,16.602331 z"
         id="path73"
         aria-label="ZERO TO HERO ZERO TO HERO ZERO TO HERO" />
    </pattern>
  </defs>
  <g
     id="layer1"
     transform="translate(-2868.0597,547.78893)">
    <rect
       style="fill:url(#pattern76);fill-opacity:1;stroke-width:6.25377;stroke-linecap:round;stroke-linejoin:round;paint-order:stroke markers fill"
       id="rect75"
       width="356.94568"
       height="356.94568"
       x="2868.0598"
       y="-547.78894" />
  </g>
</svg>
